G04 DipTrace 2.4.0.2*
%INBottomSilk.gbr*%
%MOIN*%
%ADD73C,0.0046*%
%FSLAX44Y44*%
G04*
G70*
G90*
G75*
G01*
%LNBotSilk*%
%LPD*%
G36*
X6190Y10190D2*
X7190D1*
Y9190D1*
X6190D1*
Y10190D1*
G37*
G36*
Y8690D2*
X7190D1*
Y7690D1*
X6190D1*
Y8690D1*
G37*
X7401Y9562D2*
D73*
Y9864D1*
X7574D1*
X7896D2*
Y9562D1*
X7781Y9864D1*
X7666Y9562D1*
Y9864D1*
X7988Y9720D2*
X8118D1*
X8160Y9706D1*
X8175Y9691D1*
X8189Y9663D1*
Y9620D1*
X8175Y9591D1*
X8160Y9577D1*
X8118Y9562D1*
X7988D1*
Y9864D1*
X8469Y9663D2*
X8454Y9706D1*
X8425Y9735D1*
X8382Y9749D1*
X8368D1*
X8325Y9735D1*
X8296Y9706D1*
X8282Y9663D1*
Y9649D1*
X8296Y9606D1*
X8325Y9577D1*
X8368Y9563D1*
X8382D1*
X8425Y9577D1*
X8454Y9606D1*
X8469Y9663D1*
Y9735D1*
X8454Y9807D1*
X8425Y9850D1*
X8382Y9864D1*
X8354D1*
X8311Y9850D1*
X8296Y9821D1*
X8561Y9620D2*
X8590Y9606D1*
X8633Y9563D1*
Y9864D1*
X8812Y9563D2*
X8769Y9577D1*
X8740Y9620D1*
X8726Y9692D1*
Y9735D1*
X8740Y9807D1*
X8769Y9850D1*
X8812Y9864D1*
X8841D1*
X8884Y9850D1*
X8912Y9807D1*
X8927Y9735D1*
Y9692D1*
X8912Y9620D1*
X8884Y9577D1*
X8841Y9563D1*
X8812D1*
X8912Y9620D2*
X8740Y9807D1*
X9106Y9563D2*
X9062Y9577D1*
X9034Y9620D1*
X9019Y9692D1*
Y9735D1*
X9034Y9807D1*
X9062Y9850D1*
X9106Y9864D1*
X9134D1*
X9177Y9850D1*
X9206Y9807D1*
X9220Y9735D1*
Y9692D1*
X9206Y9620D1*
X9177Y9577D1*
X9134Y9563D1*
X9106D1*
X9206Y9620D2*
X9034Y9807D1*
X9399Y9563D2*
X9356Y9577D1*
X9327Y9620D1*
X9313Y9692D1*
Y9735D1*
X9327Y9807D1*
X9356Y9850D1*
X9399Y9864D1*
X9428D1*
X9471Y9850D1*
X9499Y9807D1*
X9514Y9735D1*
Y9692D1*
X9499Y9620D1*
X9471Y9577D1*
X9428Y9563D1*
X9399D1*
X9499Y9620D2*
X9327Y9807D1*
X7401Y8062D2*
Y8364D1*
X7574D1*
X7896D2*
Y8062D1*
X7781Y8364D1*
X7666Y8062D1*
Y8364D1*
X7988Y8220D2*
X8118D1*
X8160Y8206D1*
X8175Y8191D1*
X8189Y8163D1*
Y8120D1*
X8175Y8091D1*
X8160Y8077D1*
X8118Y8062D1*
X7988D1*
Y8364D1*
X8469Y8163D2*
X8454Y8206D1*
X8425Y8235D1*
X8382Y8249D1*
X8368D1*
X8325Y8235D1*
X8296Y8206D1*
X8282Y8163D1*
Y8149D1*
X8296Y8106D1*
X8325Y8077D1*
X8368Y8063D1*
X8382D1*
X8425Y8077D1*
X8454Y8106D1*
X8469Y8163D1*
Y8235D1*
X8454Y8307D1*
X8425Y8350D1*
X8382Y8364D1*
X8354D1*
X8311Y8350D1*
X8296Y8321D1*
X8561Y8120D2*
X8590Y8106D1*
X8633Y8063D1*
Y8364D1*
X8812Y8063D2*
X8769Y8077D1*
X8740Y8120D1*
X8726Y8192D1*
Y8235D1*
X8740Y8307D1*
X8769Y8350D1*
X8812Y8364D1*
X8841D1*
X8884Y8350D1*
X8912Y8307D1*
X8927Y8235D1*
Y8192D1*
X8912Y8120D1*
X8884Y8077D1*
X8841Y8063D1*
X8812D1*
X8912Y8120D2*
X8740Y8307D1*
X9106Y8063D2*
X9062Y8077D1*
X9034Y8120D1*
X9019Y8192D1*
Y8235D1*
X9034Y8307D1*
X9062Y8350D1*
X9106Y8364D1*
X9134D1*
X9177Y8350D1*
X9206Y8307D1*
X9220Y8235D1*
Y8192D1*
X9206Y8120D1*
X9177Y8077D1*
X9134Y8063D1*
X9106D1*
X9206Y8120D2*
X9034Y8307D1*
X9328Y8134D2*
Y8120D1*
X9342Y8091D1*
X9356Y8077D1*
X9385Y8063D1*
X9442D1*
X9471Y8077D1*
X9485Y8091D1*
X9500Y8120D1*
Y8149D1*
X9485Y8178D1*
X9457Y8220D1*
X9313Y8364D1*
X9514D1*
X9999Y7984D2*
X9970Y8012D1*
X9941Y8055D1*
X9912Y8113D1*
X9898Y8185D1*
Y8242D1*
X9912Y8314D1*
X9941Y8371D1*
X9970Y8414D1*
X9999Y8443D1*
X10120Y8063D2*
X10278D1*
X10192Y8178D1*
X10235D1*
X10263Y8192D1*
X10278Y8206D1*
X10292Y8249D1*
Y8278D1*
X10278Y8321D1*
X10249Y8350D1*
X10206Y8364D1*
X10163D1*
X10120Y8350D1*
X10106Y8335D1*
X10091Y8307D1*
X10385Y8062D2*
X10500Y8364D1*
X10614Y8062D1*
X10736Y8063D2*
X10893D1*
X10807Y8178D1*
X10851D1*
X10879Y8192D1*
X10893Y8206D1*
X10908Y8249D1*
Y8278D1*
X10893Y8321D1*
X10865Y8350D1*
X10822Y8364D1*
X10779D1*
X10736Y8350D1*
X10722Y8335D1*
X10707Y8307D1*
X11378Y8062D2*
X11350Y8077D1*
X11321Y8106D1*
X11306Y8134D1*
X11292Y8177D1*
Y8249D1*
X11306Y8292D1*
X11321Y8321D1*
X11350Y8349D1*
X11378Y8364D1*
X11436D1*
X11464Y8349D1*
X11493Y8321D1*
X11507Y8292D1*
X11522Y8249D1*
Y8177D1*
X11507Y8134D1*
X11493Y8106D1*
X11464Y8077D1*
X11436Y8062D1*
X11378D1*
X11815D2*
Y8364D1*
X11614Y8062D1*
Y8364D1*
X11908Y8062D2*
Y8364D1*
X12080D1*
X12173Y8062D2*
X12287Y8206D1*
Y8364D1*
X12402Y8062D2*
X12287Y8206D1*
X12495Y7984D2*
X12524Y8012D1*
X12552Y8055D1*
X12581Y8113D1*
X12595Y8185D1*
Y8242D1*
X12581Y8314D1*
X12552Y8371D1*
X12524Y8414D1*
X12495Y8443D1*
M02*
