G04 DipTrace 2.4.0.2*
%INBottom.gbr*%
%MOIN*%
%ADD13C,0.01*%
%ADD14C,0.008*%
%ADD17R,0.059X0.059*%
%ADD18C,0.0591*%
%ADD34C,0.04*%
%FSLAX44Y44*%
G04*
G70*
G90*
G75*
G01*
%LNBottom*%
%LPD*%
X13940Y7690D2*
D13*
Y5690D1*
X15185Y4445D1*
X18190Y12940D2*
X19440Y11690D1*
X24190D1*
X17379Y8628D2*
X17129D1*
X16504Y8003D1*
Y7940D1*
Y7565D1*
X26690Y10121D2*
X25759D1*
X24190Y11690D1*
X16504Y7940D2*
X15440D1*
Y7878D1*
X17440Y12940D2*
Y13003D1*
X16940Y13503D1*
X16253D1*
X15690Y12940D1*
Y10378D1*
X15628Y10315D1*
X17690Y6440D2*
X16503Y5253D1*
X16190D1*
X15440Y7878D2*
Y7565D1*
X14878Y7003D1*
X14628D1*
X14377Y7253D1*
Y10815D1*
X14002Y11190D1*
X7627D1*
X7440Y11003D1*
Y12128D2*
Y11003D1*
Y6753D1*
X7690Y6503D1*
Y5815D1*
X6690Y4815D1*
X23255Y10503D2*
X24192D1*
X24380Y10316D1*
X20442Y9378D2*
Y8440D1*
X22254Y6628D1*
X22504Y8003D2*
Y6878D1*
X22254Y6628D1*
X7440Y11003D2*
X8254D1*
X9816Y9441D1*
X7440Y11003D2*
X6002D1*
X4690Y9691D1*
X18692Y8565D2*
Y6952D1*
X16185Y4445D1*
X18692Y8565D2*
X18067Y9190D1*
X16940D1*
X16190Y9940D1*
Y12940D1*
X13440Y6190D2*
Y5190D1*
X14185Y4445D1*
X17185D2*
Y4935D1*
X19065Y6815D1*
Y7690D1*
Y8940D1*
X18315Y9690D1*
X17940D1*
X21440Y11190D2*
X23640D1*
X19065Y7815D2*
Y7690D1*
X17940Y10690D2*
X16940Y9690D1*
X17940Y10690D2*
X19942D1*
X21692Y8940D1*
X26296D1*
X26690Y8546D1*
X18185Y4445D2*
Y5435D1*
X19440Y6690D1*
Y9190D1*
X17940Y10690D1*
X19190Y5940D2*
Y4445D1*
X19185D1*
X20440Y10940D2*
X20890D1*
X21140Y10690D1*
X22512D1*
X23868Y9334D1*
X26690D1*
X27235Y8789D1*
Y6995D1*
X26868Y6628D1*
X23192D1*
X22504Y5940D1*
X19190D1*
X14690Y7815D2*
Y12690D1*
X15690Y13690D1*
X19940D1*
X20690Y12940D1*
X13753Y10315D2*
X12815D1*
X10690Y8190D1*
Y5940D1*
X12185Y4445D1*
X16690Y13190D2*
Y10190D1*
X16940D1*
X11690Y8190D2*
Y5940D1*
X13185Y4445D1*
D34*
X17690Y6440D3*
X16690Y13190D3*
X13940Y7690D3*
X19440Y11690D3*
X18190Y12940D3*
X17940Y9690D3*
X13440Y6190D3*
X11690Y8190D3*
X19190Y5940D3*
X16504Y7565D3*
X17379Y8628D3*
X16940Y10190D3*
X16190Y12940D3*
X24190Y11690D3*
X21440Y11190D3*
X20440Y10940D3*
X13753Y10315D3*
X18692Y8565D3*
X19065Y8940D3*
X14690Y7815D3*
X16940Y9690D3*
X17940Y10690D3*
X20690Y12940D3*
X16190Y5253D3*
X19065Y7815D3*
X15628Y10315D3*
X17440Y12940D3*
X15440Y7878D3*
X23640Y11190D3*
X7440Y12128D3*
Y11003D3*
X7690Y6503D3*
X6690Y4815D3*
X16941Y7878D3*
X17004Y7378D3*
X17504D3*
X20442Y9378D3*
X23255Y10503D3*
X24380Y10316D3*
X22254Y6628D3*
X22504Y8003D3*
X9816Y9441D3*
X4690Y9691D3*
X4598Y13541D2*
D13*
X8704D1*
X20529D2*
X27285D1*
X4470Y13443D2*
X4864D1*
X5516D2*
X8696D1*
X20627D2*
X26343D1*
X27026D2*
X27414D1*
X4388Y13344D2*
X4643D1*
X5737D2*
X8706D1*
X15784D2*
X15973D1*
X17127D2*
X19846D1*
X20907D2*
X26131D1*
X27240D2*
X27493D1*
X4327Y13245D2*
X4504D1*
X5876D2*
X8734D1*
X15685D2*
X15845D1*
X17151D2*
X19945D1*
X21035D2*
X25993D1*
X27377D2*
X27554D1*
X4287Y13147D2*
X4401D1*
X5979D2*
X8784D1*
X9726D2*
X9784D1*
X10726D2*
X10784D1*
X11726D2*
X11784D1*
X12726D2*
X12784D1*
X15587D2*
X15776D1*
X17152D2*
X20043D1*
X21104D2*
X25892D1*
X27477D2*
X27595D1*
X4266Y13048D2*
X4323D1*
X6057D2*
X8867D1*
X9645D2*
X9867D1*
X10645D2*
X10867D1*
X11645D2*
X11867D1*
X12645D2*
X12867D1*
X13645D2*
X13696D1*
X15488D2*
X15739D1*
X17130D2*
X20142D1*
X21141D2*
X25814D1*
X27555D2*
X27614D1*
X6120Y12949D2*
X9009D1*
X9501D2*
X10009D1*
X10501D2*
X11009D1*
X11501D2*
X12009D1*
X12501D2*
X13009D1*
X13501D2*
X13696D1*
X15388D2*
X15726D1*
X17085D2*
X20226D1*
X21154D2*
X25753D1*
X6168Y12851D2*
X14421D1*
X15290D2*
X15735D1*
X17004D2*
X20235D1*
X21145D2*
X25706D1*
X6204Y12752D2*
X14382D1*
X15191D2*
X15767D1*
X17004D2*
X20267D1*
X21113D2*
X25670D1*
X6229Y12653D2*
X14376D1*
X15093D2*
X15828D1*
X17004D2*
X20328D1*
X21052D2*
X25645D1*
X6245Y12554D2*
X14376D1*
X15004D2*
X15876D1*
X17004D2*
X20440D1*
X20940D2*
X25629D1*
X6251Y12456D2*
X14376D1*
X15004D2*
X15876D1*
X17004D2*
X25625D1*
X6248Y12357D2*
X14376D1*
X15004D2*
X15876D1*
X17004D2*
X25628D1*
X6235Y12258D2*
X14376D1*
X15004D2*
X15876D1*
X17004D2*
X25640D1*
X6213Y12160D2*
X14376D1*
X15004D2*
X15876D1*
X17004D2*
X25664D1*
X6180Y12061D2*
X14376D1*
X15004D2*
X15876D1*
X17004D2*
X25696D1*
X6137Y11962D2*
X14376D1*
X15004D2*
X15876D1*
X17004D2*
X25742D1*
X6079Y11864D2*
X14376D1*
X15004D2*
X15876D1*
X17004D2*
X25800D1*
X27571D2*
X27631D1*
X4251Y11765D2*
X4375D1*
X6005D2*
X14376D1*
X15004D2*
X15876D1*
X17004D2*
X25873D1*
X27496D2*
X27631D1*
X4251Y11666D2*
X4468D1*
X5912D2*
X14376D1*
X15004D2*
X15876D1*
X17004D2*
X25968D1*
X27401D2*
X27631D1*
X4251Y11568D2*
X4593D1*
X5787D2*
X14376D1*
X15004D2*
X15876D1*
X17004D2*
X21178D1*
X21702D2*
X23378D1*
X23902D2*
X26096D1*
X27274D2*
X27631D1*
X4251Y11469D2*
X4778D1*
X5602D2*
X14376D1*
X15004D2*
X15876D1*
X17004D2*
X21071D1*
X24009D2*
X26285D1*
X27085D2*
X27631D1*
X4251Y11370D2*
X14376D1*
X15004D2*
X15876D1*
X17004D2*
X20285D1*
X20595D2*
X21014D1*
X24066D2*
X27631D1*
X4251Y11272D2*
X14376D1*
X15004D2*
X15876D1*
X17004D2*
X20120D1*
X20760D2*
X20984D1*
X24096D2*
X27631D1*
X4251Y11173D2*
X14376D1*
X15004D2*
X15876D1*
X17004D2*
X20040D1*
X24104D2*
X27631D1*
X4251Y11074D2*
X14376D1*
X15004D2*
X15876D1*
X17004D2*
X17689D1*
X18191D2*
X19996D1*
X24088D2*
X27631D1*
X4251Y10975D2*
X14376D1*
X15004D2*
X15876D1*
X17004D2*
X17578D1*
X24049D2*
X27631D1*
X4251Y10877D2*
X14376D1*
X15004D2*
X15876D1*
X17004D2*
X17517D1*
X22765D2*
X23301D1*
X23979D2*
X27631D1*
X4251Y10778D2*
X14376D1*
X15004D2*
X15876D1*
X17004D2*
X17485D1*
X22863D2*
X23440D1*
X23840D2*
X27631D1*
X4251Y10679D2*
X13471D1*
X14034D2*
X14376D1*
X15004D2*
X15876D1*
X17004D2*
X17476D1*
X22962D2*
X27631D1*
X4251Y10581D2*
X12657D1*
X14130D2*
X14376D1*
X15004D2*
X15876D1*
X17180D2*
X17392D1*
X23062D2*
X26379D1*
X27001D2*
X27631D1*
X4251Y10482D2*
X12542D1*
X14185D2*
X14376D1*
X15004D2*
X15876D1*
X23160D2*
X26267D1*
X27113D2*
X27631D1*
X4251Y10383D2*
X12443D1*
X14212D2*
X14376D1*
X15004D2*
X15876D1*
X18687D2*
X19809D1*
X23259D2*
X26198D1*
X27182D2*
X27631D1*
X4251Y10285D2*
X12345D1*
X14215D2*
X14376D1*
X15004D2*
X15876D1*
X18785D2*
X19907D1*
X23357D2*
X26156D1*
X27224D2*
X27631D1*
X4251Y10186D2*
X12246D1*
X14198D2*
X14376D1*
X15004D2*
X15876D1*
X18884D2*
X20007D1*
X23455D2*
X26134D1*
X27246D2*
X27631D1*
X4251Y10087D2*
X12148D1*
X14155D2*
X14376D1*
X15004D2*
X15876D1*
X18982D2*
X20106D1*
X23554D2*
X26132D1*
X27248D2*
X27631D1*
X4251Y9989D2*
X12050D1*
X12929D2*
X13428D1*
X14077D2*
X14376D1*
X15004D2*
X15876D1*
X19080D2*
X20204D1*
X23654D2*
X26146D1*
X27234D2*
X27631D1*
X4251Y9890D2*
X11950D1*
X12829D2*
X13584D1*
X13921D2*
X14376D1*
X15004D2*
X15881D1*
X19180D2*
X20303D1*
X23752D2*
X26182D1*
X27198D2*
X27631D1*
X4251Y9791D2*
X11851D1*
X12730D2*
X14376D1*
X15004D2*
X15915D1*
X19279D2*
X20401D1*
X23851D2*
X26242D1*
X27138D2*
X27631D1*
X4251Y9693D2*
X11753D1*
X12632D2*
X14376D1*
X15004D2*
X15998D1*
X19377D2*
X20500D1*
X23949D2*
X26264D1*
X27116D2*
X27631D1*
X4251Y9594D2*
X11654D1*
X12534D2*
X14376D1*
X15004D2*
X16096D1*
X19476D2*
X20600D1*
X27184D2*
X27631D1*
X4251Y9495D2*
X11556D1*
X12435D2*
X14376D1*
X15004D2*
X16195D1*
X19574D2*
X20698D1*
X27224D2*
X27631D1*
X4251Y9396D2*
X11457D1*
X12337D2*
X14376D1*
X15004D2*
X16293D1*
X19673D2*
X20796D1*
X27246D2*
X27631D1*
X4251Y9298D2*
X11357D1*
X12237D2*
X14376D1*
X15004D2*
X16393D1*
X19734D2*
X20895D1*
X27248D2*
X27631D1*
X4251Y9199D2*
X11259D1*
X12138D2*
X14376D1*
X15004D2*
X16492D1*
X19754D2*
X20993D1*
X27265D2*
X27631D1*
X4251Y9100D2*
X11160D1*
X12040D2*
X14376D1*
X15004D2*
X16590D1*
X19754D2*
X21092D1*
X27363D2*
X27631D1*
X4251Y9002D2*
X11062D1*
X11941D2*
X14376D1*
X15004D2*
X16689D1*
X19754D2*
X21192D1*
X27462D2*
X27631D1*
X4251Y8903D2*
X10964D1*
X11843D2*
X14376D1*
X15004D2*
X16831D1*
X19754D2*
X21290D1*
X27527D2*
X27631D1*
X4251Y8804D2*
X10865D1*
X11745D2*
X14376D1*
X15004D2*
X18014D1*
X19754D2*
X21389D1*
X27549D2*
X27631D1*
X4251Y8706D2*
X10765D1*
X11646D2*
X14376D1*
X15004D2*
X18112D1*
X19754D2*
X21489D1*
X27549D2*
X27631D1*
X4251Y8607D2*
X10667D1*
X11879D2*
X14376D1*
X15004D2*
X18210D1*
X19754D2*
X26134D1*
X27549D2*
X27631D1*
X4251Y8508D2*
X10568D1*
X12024D2*
X14376D1*
X15004D2*
X18231D1*
X19754D2*
X26132D1*
X27549D2*
X27631D1*
X4251Y8410D2*
X10470D1*
X12098D2*
X14376D1*
X15004D2*
X18256D1*
X19754D2*
X26148D1*
X27549D2*
X27631D1*
X4251Y8311D2*
X10401D1*
X12137D2*
X14376D1*
X15004D2*
X16795D1*
X17088D2*
X18306D1*
X19754D2*
X26184D1*
X27549D2*
X27631D1*
X4251Y8212D2*
X10378D1*
X12154D2*
X14376D1*
X15004D2*
X16625D1*
X17259D2*
X18378D1*
X19754D2*
X26131D1*
X27549D2*
X27631D1*
X4251Y8114D2*
X10376D1*
X12148D2*
X13767D1*
X14113D2*
X14339D1*
X15041D2*
X16543D1*
X17340D2*
X18378D1*
X19754D2*
X26131D1*
X27549D2*
X27631D1*
X4251Y8015D2*
X10376D1*
X12118D2*
X13614D1*
X15107D2*
X16498D1*
X17384D2*
X18378D1*
X19754D2*
X26131D1*
X27549D2*
X27631D1*
X4251Y7916D2*
X10376D1*
X12062D2*
X13537D1*
X15143D2*
X16479D1*
X17404D2*
X18378D1*
X19754D2*
X26131D1*
X27549D2*
X27631D1*
X4251Y7817D2*
X10376D1*
X12004D2*
X13495D1*
X15154D2*
X16481D1*
X17627D2*
X18378D1*
X19754D2*
X26131D1*
X27549D2*
X27631D1*
X4251Y7719D2*
X10376D1*
X12004D2*
X13478D1*
X15143D2*
X16506D1*
X17813D2*
X18378D1*
X19754D2*
X26131D1*
X27549D2*
X27631D1*
X4251Y7620D2*
X10376D1*
X12004D2*
X13481D1*
X15110D2*
X16557D1*
X17898D2*
X18378D1*
X19754D2*
X26131D1*
X27549D2*
X27631D1*
X4251Y7521D2*
X10376D1*
X12004D2*
X13509D1*
X15046D2*
X16564D1*
X17945D2*
X18378D1*
X19754D2*
X26131D1*
X27549D2*
X27631D1*
X4251Y7423D2*
X10376D1*
X12004D2*
X13564D1*
X14316D2*
X14451D1*
X14929D2*
X16542D1*
X17965D2*
X18378D1*
X19754D2*
X26131D1*
X27549D2*
X27631D1*
X4251Y7324D2*
X10376D1*
X12004D2*
X13626D1*
X14254D2*
X16543D1*
X17965D2*
X18378D1*
X19754D2*
X26131D1*
X27549D2*
X27631D1*
X4251Y7225D2*
X10376D1*
X12004D2*
X13626D1*
X14254D2*
X16567D1*
X17941D2*
X18378D1*
X19754D2*
X26131D1*
X27549D2*
X27631D1*
X4251Y7127D2*
X10376D1*
X12004D2*
X13626D1*
X14254D2*
X16615D1*
X17891D2*
X18378D1*
X19754D2*
X26921D1*
X27549D2*
X27631D1*
X4251Y7028D2*
X10376D1*
X12004D2*
X13626D1*
X14254D2*
X16704D1*
X17802D2*
X18328D1*
X19754D2*
X26829D1*
X27549D2*
X27631D1*
X4251Y6929D2*
X10376D1*
X12004D2*
X13626D1*
X14254D2*
X16925D1*
X17082D2*
X17425D1*
X17582D2*
X18229D1*
X19754D2*
X23143D1*
X27541D2*
X27631D1*
X4251Y6831D2*
X10376D1*
X12004D2*
X13626D1*
X14254D2*
X18131D1*
X19754D2*
X22956D1*
X27501D2*
X27631D1*
X4251Y6732D2*
X10376D1*
X12004D2*
X13626D1*
X14254D2*
X18032D1*
X19754D2*
X22856D1*
X27412D2*
X27631D1*
X4251Y6633D2*
X10376D1*
X12004D2*
X13332D1*
X13548D2*
X13626D1*
X14254D2*
X17934D1*
X19749D2*
X22757D1*
X27313D2*
X27631D1*
X4251Y6535D2*
X10376D1*
X12004D2*
X13134D1*
X14254D2*
X17835D1*
X19712D2*
X22659D1*
X27215D2*
X27631D1*
X4251Y6436D2*
X4843D1*
X5537D2*
X10376D1*
X12004D2*
X13048D1*
X14254D2*
X17735D1*
X19626D2*
X22560D1*
X27116D2*
X27631D1*
X4251Y6337D2*
X4632D1*
X5748D2*
X10376D1*
X12004D2*
X13001D1*
X14254D2*
X17637D1*
X19527D2*
X22462D1*
X27251D2*
X27631D1*
X4251Y6238D2*
X4496D1*
X5884D2*
X10376D1*
X12004D2*
X12979D1*
X14254D2*
X17539D1*
X23243D2*
X25985D1*
X27385D2*
X27631D1*
X4251Y6140D2*
X4395D1*
X5985D2*
X10376D1*
X12004D2*
X12979D1*
X14254D2*
X17440D1*
X23143D2*
X25885D1*
X27484D2*
X27631D1*
X4251Y6041D2*
X4319D1*
X6062D2*
X10376D1*
X12029D2*
X13001D1*
X14254D2*
X17342D1*
X23045D2*
X25809D1*
X27560D2*
X27631D1*
X6123Y5942D2*
X10376D1*
X12127D2*
X13050D1*
X14254D2*
X17243D1*
X22946D2*
X25750D1*
X6171Y5844D2*
X10392D1*
X12226D2*
X13126D1*
X14254D2*
X17143D1*
X22848D2*
X25703D1*
X6205Y5745D2*
X10446D1*
X12324D2*
X13126D1*
X14324D2*
X17045D1*
X22749D2*
X25668D1*
X6230Y5646D2*
X10543D1*
X12423D2*
X13126D1*
X14423D2*
X16946D1*
X22593D2*
X25643D1*
X6246Y5548D2*
X10643D1*
X12523D2*
X13126D1*
X14523D2*
X16848D1*
X19504D2*
X25629D1*
X6251Y5449D2*
X10742D1*
X12621D2*
X13126D1*
X14621D2*
X16750D1*
X19504D2*
X25625D1*
X6248Y5350D2*
X10840D1*
X12720D2*
X13126D1*
X14720D2*
X16651D1*
X19504D2*
X25628D1*
X6234Y5252D2*
X10939D1*
X12818D2*
X13126D1*
X14818D2*
X16551D1*
X19504D2*
X25642D1*
X6212Y5153D2*
X11037D1*
X12916D2*
X13128D1*
X14916D2*
X16453D1*
X19504D2*
X25665D1*
X6177Y5054D2*
X11135D1*
X13015D2*
X13159D1*
X15015D2*
X16354D1*
X19504D2*
X25700D1*
X6134Y4955D2*
X7956D1*
X8404D2*
X8973D1*
X9396D2*
X9973D1*
X10396D2*
X10973D1*
X15396D2*
X15973D1*
X19504D2*
X19626D1*
X20745D2*
X25745D1*
X6074Y4857D2*
X7801D1*
X8559D2*
X8812D1*
X9559D2*
X9812D1*
X10559D2*
X10812D1*
X15559D2*
X15812D1*
X19559D2*
X19626D1*
X20745D2*
X25804D1*
X27566D2*
X27618D1*
X4277Y4758D2*
X4379D1*
X6001D2*
X7715D1*
X8645D2*
X8725D1*
X9646D2*
X9725D1*
X10646D2*
X10725D1*
X15646D2*
X15725D1*
X20745D2*
X25879D1*
X27491D2*
X27604D1*
X4318Y4659D2*
X4476D1*
X5904D2*
X7662D1*
X20745D2*
X25976D1*
X27393D2*
X27564D1*
X4370Y4561D2*
X4604D1*
X5776D2*
X7632D1*
X20745D2*
X26107D1*
X27263D2*
X27514D1*
X4445Y4462D2*
X4795D1*
X5585D2*
X7621D1*
X20745D2*
X26303D1*
X27068D2*
X27437D1*
X4565Y4363D2*
X7628D1*
X20745D2*
X27317D1*
X4780Y4265D2*
X7653D1*
X20745D2*
X27104D1*
X26191Y8308D2*
X26196D1*
X26169Y8374D1*
X26146Y8471D1*
X26141Y8571D1*
X26149Y8638D1*
X26046Y8636D1*
X21692D1*
X21643Y8640D1*
X21594Y8652D1*
X21548Y8672D1*
X21520Y8690D1*
X21477Y8725D1*
X19817Y10386D1*
X18675D1*
X19110Y9950D1*
X19655Y9405D1*
X19687Y9367D1*
X19713Y9324D1*
X19731Y9278D1*
X19739Y9245D1*
X19744Y9190D1*
Y6690D1*
X19740Y6640D1*
X19728Y6592D1*
X19708Y6546D1*
X19690Y6517D1*
X19655Y6475D1*
X19475Y6295D1*
X19527Y6243D1*
X19890Y6244D1*
X22379D1*
X22977Y6843D1*
X23015Y6875D1*
X23058Y6901D1*
X23105Y6919D1*
X23137Y6927D1*
X23192Y6932D1*
X26744D1*
X26930Y7120D1*
X26931Y7209D1*
X26141Y7210D1*
Y8308D1*
X26191D1*
X27237Y9284D2*
X27228Y9227D1*
X27450Y9004D1*
X27483Y8965D1*
X27508Y8923D1*
X27526Y8876D1*
X27534Y8843D1*
X27539Y8789D1*
Y6995D1*
X27535Y6945D1*
X27523Y6897D1*
X27503Y6851D1*
X27485Y6822D1*
X27450Y6780D1*
X27087Y6417D1*
X27163Y6382D1*
X27249Y6332D1*
X27331Y6274D1*
X27407Y6209D1*
X27476Y6137D1*
X27538Y6059D1*
X27593Y5975D1*
X27640Y5885D1*
Y12004D1*
X27596Y11920D1*
X27542Y11836D1*
X27480Y11757D1*
X27411Y11685D1*
X27336Y11619D1*
X27254Y11561D1*
X27168Y11511D1*
X27077Y11469D1*
X26982Y11437D1*
X26885Y11413D1*
X26786Y11399D1*
X26686Y11394D1*
X26587Y11398D1*
X26488Y11412D1*
X26390Y11436D1*
X26296Y11468D1*
X26205Y11510D1*
X26118Y11560D1*
X26037Y11617D1*
X25961Y11683D1*
X25892Y11755D1*
X25830Y11833D1*
X25776Y11917D1*
X25730Y12006D1*
X25692Y12099D1*
X25664Y12195D1*
X25645Y12293D1*
X25635Y12392D1*
Y12492D1*
X25644Y12592D1*
X25663Y12690D1*
X25690Y12786D1*
X25727Y12879D1*
X25773Y12968D1*
X25827Y13052D1*
X25888Y13131D1*
X25957Y13203D1*
X26032Y13269D1*
X26114Y13327D1*
X26200Y13378D1*
X26291Y13420D1*
X26385Y13453D1*
X26482Y13477D1*
X26581Y13491D1*
X26681Y13496D1*
X26781Y13492D1*
X26880Y13478D1*
X26977Y13455D1*
X27072Y13423D1*
X27163Y13382D1*
X27249Y13332D1*
X27331Y13274D1*
X27407Y13209D1*
X27476Y13137D1*
X27538Y13059D1*
X27593Y12975D1*
X27640Y12885D1*
Y12922D1*
X27614Y13123D1*
X27545Y13290D1*
X27435Y13434D1*
X27291Y13545D1*
X27122Y13614D1*
X26920Y13640D1*
X20419D1*
X20667Y13393D1*
X20750Y13390D1*
X20799Y13381D1*
X20847Y13366D1*
X20893Y13346D1*
X20936Y13321D1*
X20977Y13292D1*
X21014Y13258D1*
X21047Y13221D1*
X21076Y13180D1*
X21100Y13136D1*
X21119Y13090D1*
X21132Y13042D1*
X21141Y12992D1*
X21144Y12940D1*
X21141Y12890D1*
X21133Y12841D1*
X21119Y12793D1*
X21101Y12746D1*
X21077Y12702D1*
X21048Y12661D1*
X21016Y12624D1*
X20979Y12590D1*
X20939Y12560D1*
X20895Y12535D1*
X20850Y12515D1*
X20802Y12500D1*
X20753Y12490D1*
X20703Y12486D1*
X20653Y12488D1*
X20604Y12494D1*
X20555Y12506D1*
X20508Y12524D1*
X20464Y12546D1*
X20422Y12574D1*
X20383Y12605D1*
X20348Y12641D1*
X20318Y12680D1*
X20291Y12723D1*
X20270Y12768D1*
X20253Y12815D1*
X20242Y12864D1*
X20237Y12914D1*
Y12962D1*
X19839Y13361D1*
X19813Y13387D1*
X18890Y13386D1*
X17100D1*
X17119Y13340D1*
X17132Y13292D1*
X17141Y13242D1*
X17144Y13190D1*
X17141Y13140D1*
X17133Y13091D1*
X17119Y13043D1*
X17101Y12996D1*
X17077Y12952D1*
X17048Y12911D1*
X16994Y12854D1*
Y10642D1*
X17049Y10631D1*
X17097Y10616D1*
X17143Y10596D1*
X17186Y10571D1*
X17227Y10542D1*
X17264Y10508D1*
X17294Y10474D1*
X17486Y10666D1*
X17492Y10763D1*
X17503Y10812D1*
X17519Y10860D1*
X17540Y10905D1*
X17566Y10947D1*
X17597Y10987D1*
X17631Y11023D1*
X17670Y11055D1*
X17712Y11082D1*
X17756Y11105D1*
X17803Y11123D1*
X17851Y11135D1*
X17901Y11142D1*
X17951Y11144D1*
X18000Y11140D1*
X18049Y11131D1*
X18097Y11116D1*
X18143Y11096D1*
X18186Y11071D1*
X18227Y11042D1*
X18277Y10993D1*
X18640Y10994D1*
X19978Y10992D1*
X19992Y11013D1*
X20003Y11062D1*
X20019Y11110D1*
X20040Y11155D1*
X20066Y11197D1*
X20097Y11237D1*
X20131Y11273D1*
X20170Y11305D1*
X20212Y11332D1*
X20256Y11355D1*
X20303Y11373D1*
X20351Y11385D1*
X20401Y11392D1*
X20451Y11394D1*
X20500Y11390D1*
X20549Y11381D1*
X20597Y11366D1*
X20643Y11346D1*
X20686Y11321D1*
X20727Y11292D1*
X20777Y11243D1*
X20890Y11244D1*
X20924Y11242D1*
X20974Y11232D1*
X20992Y11263D1*
X21003Y11312D1*
X21019Y11360D1*
X21040Y11405D1*
X21066Y11447D1*
X21097Y11487D1*
X21131Y11523D1*
X21170Y11555D1*
X21212Y11582D1*
X21256Y11605D1*
X21303Y11623D1*
X21351Y11635D1*
X21401Y11642D1*
X21451Y11644D1*
X21500Y11640D1*
X21549Y11631D1*
X21597Y11616D1*
X21643Y11596D1*
X21686Y11571D1*
X21727Y11542D1*
X21777Y11493D1*
X22140Y11494D1*
X23304D1*
X23331Y11523D1*
X23370Y11555D1*
X23412Y11582D1*
X23456Y11605D1*
X23503Y11623D1*
X23551Y11635D1*
X23601Y11642D1*
X23651Y11644D1*
X23700Y11640D1*
X23749Y11631D1*
X23797Y11616D1*
X23843Y11596D1*
X23886Y11571D1*
X23927Y11542D1*
X23964Y11508D1*
X23997Y11471D1*
X24026Y11430D1*
X24050Y11386D1*
X24069Y11340D1*
X24082Y11292D1*
X24091Y11242D1*
X24094Y11190D1*
X24091Y11140D1*
X24083Y11091D1*
X24069Y11043D1*
X24051Y10996D1*
X24027Y10952D1*
X23998Y10911D1*
X23966Y10874D1*
X23929Y10840D1*
X23889Y10810D1*
X23845Y10785D1*
X23800Y10765D1*
X23752Y10750D1*
X23703Y10740D1*
X23653Y10736D1*
X23603Y10738D1*
X23554Y10744D1*
X23505Y10756D1*
X23458Y10774D1*
X23414Y10796D1*
X23372Y10824D1*
X23333Y10855D1*
X23304Y10886D1*
X22745D1*
X23399Y10233D1*
X23994Y9638D1*
X26234Y9640D1*
X26297Y9717D1*
X26307Y9727D1*
X26258Y9782D1*
X26218Y9840D1*
X26186Y9902D1*
X26163Y9968D1*
X26147Y10036D1*
X26141Y10106D1*
X26143Y10176D1*
X26155Y10245D1*
X26175Y10312D1*
X26203Y10376D1*
X26239Y10435D1*
X26283Y10490D1*
X26333Y10539D1*
X26389Y10581D1*
X26450Y10615D1*
X26515Y10642D1*
X26582Y10660D1*
X26652Y10669D1*
X26722Y10670D1*
X26791Y10661D1*
X26859Y10644D1*
X26924Y10618D1*
X26985Y10585D1*
X27042Y10543D1*
X27092Y10495D1*
X27137Y10441D1*
X27174Y10382D1*
X27203Y10318D1*
X27224Y10251D1*
X27236Y10182D1*
X27239Y10111D1*
X27233Y10042D1*
X27219Y9973D1*
X27196Y9907D1*
X27164Y9845D1*
X27125Y9786D1*
X27073Y9728D1*
X27131Y9662D1*
X27183Y9576D1*
X27219Y9483D1*
X27237Y9385D1*
Y9284D1*
X19646Y4994D2*
X20734D1*
Y4240D1*
X26922D1*
X27123Y4266D1*
X27290Y4335D1*
X27434Y4445D1*
X27545Y4590D1*
X27614Y4758D1*
X27640Y4960D1*
X27620Y4964D1*
X27570Y4877D1*
X27512Y4796D1*
X27446Y4720D1*
X27374Y4651D1*
X27296Y4589D1*
X27211Y4535D1*
X27123Y4489D1*
X27030Y4452D1*
X26934Y4424D1*
X26836Y4405D1*
X26736Y4395D1*
X26636D1*
X26537Y4404D1*
X26439Y4423D1*
X26343Y4451D1*
X26250Y4488D1*
X26161Y4534D1*
X26077Y4588D1*
X25998Y4649D1*
X25926Y4718D1*
X25860Y4793D1*
X25802Y4875D1*
X25752Y4961D1*
X25710Y5052D1*
X25677Y5146D1*
X25653Y5243D1*
X25639Y5342D1*
X25634Y5442D1*
X25638Y5542D1*
X25652Y5641D1*
X25675Y5738D1*
X25708Y5833D1*
X25749Y5924D1*
X25799Y6011D1*
X25857Y6092D1*
X25922Y6168D1*
X25994Y6237D1*
X26072Y6299D1*
X26110Y6325D1*
X25318Y6324D1*
X23316D1*
X22947Y5953D1*
X22719Y5725D1*
X22681Y5693D1*
X22638Y5667D1*
X22592Y5649D1*
X22559Y5641D1*
X22504Y5636D1*
X19528D1*
X19494Y5604D1*
Y4898D1*
X19560Y4846D1*
X19626Y4771D1*
X19636Y4757D1*
Y4994D1*
X19646D1*
X15685Y4671D2*
X15730Y4752D1*
X15793Y4829D1*
X15869Y4894D1*
X15955Y4944D1*
X16049Y4977D1*
X16148Y4993D1*
X16248Y4990D1*
X16292Y4983D1*
X18389Y7079D1*
X18388Y7602D1*
Y8228D1*
X18350Y8267D1*
X18319Y8306D1*
X18293Y8348D1*
X18271Y8394D1*
X18255Y8441D1*
X18244Y8490D1*
X18238Y8539D1*
Y8588D1*
X17941Y8886D1*
X16940D1*
X16890Y8890D1*
X16842Y8902D1*
X16796Y8922D1*
X16767Y8940D1*
X16725Y8975D1*
X15975Y9725D1*
X15943Y9763D1*
X15917Y9806D1*
X15899Y9853D1*
X15891Y9885D1*
X15886Y9940D1*
Y12604D1*
X15848Y12641D1*
X15818Y12680D1*
X15791Y12723D1*
X15770Y12768D1*
X15753Y12815D1*
X15742Y12864D1*
X15737Y12914D1*
Y12964D1*
X15742Y13013D1*
X15753Y13062D1*
X15769Y13110D1*
X15790Y13155D1*
X15816Y13197D1*
X15847Y13237D1*
X15881Y13273D1*
X15920Y13305D1*
X15962Y13332D1*
X16006Y13355D1*
X16053Y13373D1*
X16109Y13386D1*
X15817D1*
X14993Y12564D1*
X14994Y8151D1*
X15047Y8096D1*
X15076Y8055D1*
X15100Y8011D1*
X15119Y7965D1*
X15132Y7917D1*
X15141Y7867D1*
X15144Y7815D1*
X15141Y7765D1*
X15133Y7716D1*
X15119Y7668D1*
X15101Y7621D1*
X15077Y7577D1*
X15048Y7536D1*
X15016Y7499D1*
X14979Y7465D1*
X14939Y7435D1*
X14895Y7410D1*
X14850Y7390D1*
X14802Y7375D1*
X14753Y7365D1*
X14703Y7361D1*
X14653Y7363D1*
X14604Y7369D1*
X14555Y7381D1*
X14508Y7399D1*
X14464Y7421D1*
X14422Y7449D1*
X14356Y7508D1*
X14327Y7452D1*
X14298Y7411D1*
X14244Y7354D1*
Y5817D1*
X15078Y4982D1*
X15148Y4993D1*
X15248Y4990D1*
X15346Y4970D1*
X15438Y4932D1*
X15522Y4878D1*
X15595Y4810D1*
X15654Y4730D1*
X15685Y4670D1*
X13078Y4983D2*
X13148Y4993D1*
X13209D1*
X13175Y5042D1*
X13154Y5087D1*
X13141Y5135D1*
X13136Y5190D1*
Y5854D1*
X13098Y5891D1*
X13068Y5930D1*
X13041Y5973D1*
X13020Y6018D1*
X13003Y6065D1*
X12992Y6114D1*
X12987Y6164D1*
Y6214D1*
X12992Y6263D1*
X13003Y6312D1*
X13019Y6360D1*
X13040Y6405D1*
X13066Y6447D1*
X13097Y6487D1*
X13131Y6523D1*
X13170Y6555D1*
X13212Y6582D1*
X13256Y6605D1*
X13303Y6623D1*
X13351Y6635D1*
X13401Y6642D1*
X13451Y6644D1*
X13500Y6640D1*
X13549Y6631D1*
X13597Y6616D1*
X13636Y6599D1*
Y7354D1*
X13598Y7391D1*
X13568Y7430D1*
X13541Y7473D1*
X13520Y7518D1*
X13503Y7565D1*
X13492Y7614D1*
X13487Y7664D1*
Y7714D1*
X13492Y7763D1*
X13503Y7812D1*
X13519Y7860D1*
X13540Y7905D1*
X13566Y7947D1*
X13597Y7987D1*
X13631Y8023D1*
X13670Y8055D1*
X13712Y8082D1*
X13756Y8105D1*
X13803Y8123D1*
X13851Y8135D1*
X13901Y8142D1*
X13951Y8144D1*
X14000Y8140D1*
X14049Y8131D1*
X14097Y8116D1*
X14143Y8096D1*
X14186Y8071D1*
X14227Y8042D1*
X14273Y7998D1*
X14316Y8072D1*
X14347Y8112D1*
X14387Y8153D1*
X14386Y8365D1*
Y12690D1*
X14390Y12740D1*
X14402Y12788D1*
X14422Y12834D1*
X14441Y12864D1*
X14454Y12896D1*
X13706D1*
Y13132D1*
X13665Y13079D1*
X13592Y13011D1*
X13507Y12958D1*
X13415Y12920D1*
X13317Y12900D1*
X13217Y12897D1*
X13119Y12913D1*
X13025Y12947D1*
X12938Y12997D1*
X12862Y13061D1*
X12799Y13139D1*
X12755Y13219D1*
X12724Y13160D1*
X12665Y13079D1*
X12592Y13011D1*
X12507Y12958D1*
X12415Y12920D1*
X12317Y12900D1*
X12217Y12897D1*
X12119Y12913D1*
X12025Y12947D1*
X11938Y12997D1*
X11862Y13061D1*
X11799Y13139D1*
X11755Y13219D1*
X11724Y13160D1*
X11665Y13079D1*
X11592Y13011D1*
X11507Y12958D1*
X11415Y12920D1*
X11317Y12900D1*
X11217Y12897D1*
X11119Y12913D1*
X11025Y12947D1*
X10938Y12997D1*
X10862Y13061D1*
X10799Y13139D1*
X10755Y13219D1*
X10724Y13160D1*
X10665Y13079D1*
X10592Y13011D1*
X10507Y12958D1*
X10415Y12920D1*
X10317Y12900D1*
X10217Y12897D1*
X10119Y12913D1*
X10025Y12947D1*
X9938Y12997D1*
X9862Y13061D1*
X9799Y13139D1*
X9755Y13219D1*
X9724Y13160D1*
X9665Y13079D1*
X9592Y13011D1*
X9507Y12958D1*
X9415Y12920D1*
X9317Y12900D1*
X9217Y12897D1*
X9119Y12913D1*
X9025Y12947D1*
X8938Y12997D1*
X8862Y13061D1*
X8799Y13139D1*
X8751Y13227D1*
X8720Y13321D1*
X8707Y13420D1*
X8711Y13520D1*
X8734Y13617D1*
X8742Y13639D1*
X7774Y13640D1*
X4959D1*
X4759Y13614D1*
X4592Y13544D1*
X4447Y13433D1*
X4336Y13289D1*
X4267Y13121D1*
X4240Y12920D1*
X4254Y12919D1*
X4304Y13006D1*
X4362Y13087D1*
X4427Y13163D1*
X4499Y13232D1*
X4577Y13294D1*
X4661Y13349D1*
X4750Y13395D1*
X4842Y13432D1*
X4938Y13461D1*
X5036Y13480D1*
X5136Y13490D1*
X5236D1*
X5335Y13481D1*
X5434Y13463D1*
X5530Y13435D1*
X5623Y13398D1*
X5712Y13353D1*
X5796Y13299D1*
X5875Y13238D1*
X5947Y13169D1*
X6013Y13094D1*
X6072Y13013D1*
X6122Y12926D1*
X6164Y12836D1*
X6197Y12741D1*
X6221Y12644D1*
X6236Y12545D1*
X6241Y12440D1*
X6237Y12340D1*
X6222Y12241D1*
X6199Y12144D1*
X6166Y12050D1*
X6125Y11959D1*
X6075Y11872D1*
X6017Y11791D1*
X5951Y11715D1*
X5879Y11646D1*
X5801Y11584D1*
X5716Y11530D1*
X5628Y11484D1*
X5535Y11447D1*
X5439Y11419D1*
X5341Y11400D1*
X5241Y11390D1*
X5141D1*
X5042Y11399D1*
X4944Y11418D1*
X4848Y11446D1*
X4755Y11483D1*
X4666Y11529D1*
X4582Y11583D1*
X4503Y11644D1*
X4431Y11713D1*
X4365Y11788D1*
X4307Y11870D1*
X4257Y11956D1*
X4240Y11991D1*
Y6174D1*
Y5891D1*
X4304Y6006D1*
X4362Y6087D1*
X4427Y6163D1*
X4499Y6232D1*
X4577Y6294D1*
X4661Y6349D1*
X4750Y6395D1*
X4842Y6432D1*
X4938Y6461D1*
X5036Y6480D1*
X5136Y6490D1*
X5236D1*
X5335Y6481D1*
X5434Y6463D1*
X5530Y6435D1*
X5623Y6398D1*
X5712Y6353D1*
X5796Y6299D1*
X5875Y6238D1*
X5947Y6169D1*
X6013Y6094D1*
X6072Y6013D1*
X6122Y5926D1*
X6164Y5836D1*
X6197Y5741D1*
X6221Y5644D1*
X6236Y5545D1*
X6241Y5440D1*
X6237Y5340D1*
X6222Y5241D1*
X6199Y5144D1*
X6166Y5050D1*
X6125Y4959D1*
X6075Y4872D1*
X6017Y4791D1*
X5951Y4715D1*
X5879Y4646D1*
X5801Y4584D1*
X5716Y4530D1*
X5628Y4484D1*
X5535Y4447D1*
X5439Y4419D1*
X5341Y4400D1*
X5241Y4390D1*
X5141D1*
X5042Y4399D1*
X4944Y4418D1*
X4848Y4446D1*
X4755Y4483D1*
X4666Y4529D1*
X4582Y4583D1*
X4503Y4644D1*
X4431Y4713D1*
X4365Y4788D1*
X4307Y4870D1*
X4257Y4956D1*
X4240Y4991D1*
X4246Y4913D1*
X4266Y4759D1*
X4336Y4592D1*
X4447Y4447D1*
X4591Y4336D1*
X4759Y4267D1*
X4960Y4240D1*
X7674D1*
X7645Y4325D1*
X7631Y4424D1*
X7636Y4524D1*
X7658Y4621D1*
X7698Y4713D1*
X7753Y4796D1*
X7823Y4868D1*
X7905Y4925D1*
X7995Y4967D1*
X8092Y4992D1*
X8192Y4999D1*
X8291Y4988D1*
X8386Y4959D1*
X8475Y4913D1*
X8554Y4852D1*
X8621Y4778D1*
X8673Y4693D1*
X8683Y4668D1*
X8730Y4752D1*
X8793Y4829D1*
X8869Y4894D1*
X8955Y4944D1*
X9049Y4977D1*
X9148Y4993D1*
X9248Y4990D1*
X9346Y4970D1*
X9438Y4932D1*
X9522Y4878D1*
X9595Y4810D1*
X9654Y4730D1*
X9685Y4670D1*
X9730Y4752D1*
X9793Y4829D1*
X9869Y4894D1*
X9955Y4944D1*
X10049Y4977D1*
X10148Y4993D1*
X10248Y4990D1*
X10346Y4970D1*
X10438Y4932D1*
X10522Y4878D1*
X10595Y4810D1*
X10654Y4730D1*
X10685Y4670D1*
X10730Y4752D1*
X10793Y4829D1*
X10869Y4894D1*
X10955Y4944D1*
X11049Y4977D1*
X11148Y4993D1*
X11206D1*
X10475Y5725D1*
X10443Y5763D1*
X10417Y5806D1*
X10399Y5853D1*
X10391Y5885D1*
X10386Y5940D1*
Y8190D1*
X10390Y8240D1*
X10402Y8288D1*
X10422Y8334D1*
X10440Y8363D1*
X10475Y8405D1*
X12600Y10530D1*
X12638Y10562D1*
X12681Y10588D1*
X12727Y10606D1*
X12760Y10614D1*
X12815Y10619D1*
X13417D1*
X13444Y10648D1*
X13482Y10680D1*
X13524Y10707D1*
X13569Y10730D1*
X13615Y10748D1*
X13664Y10760D1*
X13713Y10767D1*
X13763Y10769D1*
X13813Y10765D1*
X13862Y10756D1*
X13910Y10741D1*
X13956Y10721D1*
X13999Y10696D1*
X14039Y10667D1*
X14076Y10633D1*
X14109Y10596D1*
X14138Y10555D1*
X14162Y10511D1*
X14181Y10465D1*
X14195Y10417D1*
X14203Y10367D1*
X14207Y10315D1*
X14204Y10265D1*
X14196Y10216D1*
X14182Y10168D1*
X14163Y10121D1*
X14139Y10077D1*
X14111Y10036D1*
X14078Y9999D1*
X14041Y9965D1*
X14001Y9935D1*
X13958Y9910D1*
X13912Y9890D1*
X13864Y9875D1*
X13815Y9865D1*
X13766Y9861D1*
X13716Y9863D1*
X13666Y9869D1*
X13618Y9881D1*
X13571Y9899D1*
X13526Y9921D1*
X13484Y9949D1*
X13446Y9980D1*
X13416Y10011D1*
X12942D1*
X11553Y8623D1*
X11601Y8635D1*
X11651Y8642D1*
X11701Y8644D1*
X11750Y8640D1*
X11799Y8631D1*
X11847Y8616D1*
X11893Y8596D1*
X11936Y8571D1*
X11977Y8542D1*
X12014Y8508D1*
X12047Y8471D1*
X12076Y8430D1*
X12100Y8386D1*
X12119Y8340D1*
X12132Y8292D1*
X12141Y8242D1*
X12144Y8190D1*
X12141Y8140D1*
X12133Y8091D1*
X12119Y8043D1*
X12101Y7996D1*
X12077Y7952D1*
X12048Y7911D1*
X11994Y7854D1*
Y6067D1*
X13077Y4983D1*
X17393Y7828D2*
X17391Y7817D1*
X17465Y7830D1*
X17515Y7832D1*
X17564Y7828D1*
X17613Y7818D1*
X17661Y7804D1*
X17707Y7784D1*
X17750Y7759D1*
X17791Y7730D1*
X17828Y7696D1*
X17861Y7659D1*
X17889Y7618D1*
X17913Y7574D1*
X17933Y7528D1*
X17946Y7480D1*
X17955Y7430D1*
X17958Y7378D1*
X17955Y7328D1*
X17947Y7279D1*
X17933Y7231D1*
X17915Y7184D1*
X17891Y7140D1*
X17862Y7099D1*
X17830Y7062D1*
X17793Y7028D1*
X17753Y6998D1*
X17709Y6973D1*
X17664Y6953D1*
X17616Y6938D1*
X17567Y6928D1*
X17517Y6924D1*
X17467Y6925D1*
X17418Y6932D1*
X17369Y6944D1*
X17322Y6962D1*
X17255Y6999D1*
X17209Y6973D1*
X17164Y6953D1*
X17116Y6938D1*
X17067Y6928D1*
X17017Y6924D1*
X16967Y6925D1*
X16918Y6932D1*
X16869Y6944D1*
X16822Y6962D1*
X16778Y6984D1*
X16736Y7012D1*
X16697Y7043D1*
X16662Y7079D1*
X16631Y7118D1*
X16605Y7161D1*
X16584Y7206D1*
X16567Y7253D1*
X16556Y7302D1*
X16551Y7352D1*
X16550Y7402D1*
X16556Y7451D1*
X16567Y7500D1*
X16598Y7580D1*
X16543Y7661D1*
X16521Y7706D1*
X16505Y7753D1*
X16494Y7802D1*
X16488Y7852D1*
Y7902D1*
X16493Y7951D1*
X16504Y8000D1*
X16520Y8047D1*
X16541Y8093D1*
X16567Y8135D1*
X16598Y8175D1*
X16633Y8211D1*
X16671Y8243D1*
X16713Y8270D1*
X16757Y8293D1*
X16804Y8311D1*
X16853Y8323D1*
X16902Y8330D1*
X16952Y8332D1*
X17002Y8328D1*
X17051Y8319D1*
X17099Y8304D1*
X17144Y8284D1*
X17188Y8259D1*
X17228Y8230D1*
X17265Y8196D1*
X17298Y8159D1*
X17327Y8118D1*
X17351Y8074D1*
X17370Y8028D1*
X17384Y7980D1*
X17392Y7930D1*
X17395Y7878D1*
X17393Y7828D1*
X26690Y10670D2*
D14*
Y10121D1*
X26141D2*
X27239D1*
X20185Y4994D2*
Y4445D1*
X20734D1*
D17*
X26690Y7759D3*
D18*
Y8546D3*
Y9334D3*
Y10121D3*
D17*
X20185Y4445D3*
D18*
X19185D3*
X18185D3*
X17185D3*
X16185D3*
X15185D3*
X14185D3*
X13185D3*
X12185D3*
X11185D3*
X10185D3*
X9185D3*
D17*
X14255Y13445D3*
D18*
X13255D3*
X12255D3*
X11255D3*
X10255D3*
X9255D3*
X8180Y4450D3*
M02*
