M48
INCH
T01C0.019
T02C0.035
T03C0.0354
T04C0.1
%
T01
X+017690Y+006440
X+017504Y+007378
X+017004Y+007378
X+016941Y+007878
X+016504Y+007565
X+015440Y+007878
X+014690Y+007815
X+013940Y+007690
X+013440Y+006190
X+011690Y+008190
X+009816Y+009441
X+007440Y+011003
X+007440Y+012128
X+004690Y+009691
X+007690Y+006503
X+006690Y+004815
X+013753Y+010315
X+015628Y+010315
X+016940Y+010190
X+016940Y+009690
X+017940Y+009690
X+017940Y+010690
X+019440Y+011690
X+020440Y+010940
X+021440Y+011190
X+020690Y+012940
X+018190Y+012940
X+017440Y+012940
X+016690Y+013190
X+016190Y+012940
X+017379Y+008628
X+018692Y+008565
X+019065Y+008940
X+019065Y+007815
X+019190Y+005940
X+016190Y+005253
X+020442Y+009378
X+022504Y+008003
X+022254Y+006628
X+023255Y+010503
X+023640Y+011190
X+024190Y+011690
X+024380Y+010316
T02
X+026690Y+007759
X+020185Y+004445
X+019185Y+004445
X+018185Y+004445
X+017185Y+004445
X+016185Y+004445
X+015185Y+004445
X+014185Y+004445
X+013185Y+004445
X+012185Y+004445
X+011185Y+004445
X+010185Y+004445
X+009185Y+004445
X+009255Y+013445
X+010255Y+013445
X+011255Y+013445
X+012255Y+013445
X+013255Y+013445
X+014255Y+013445
T03
X+026690Y+008546
X+026690Y+009334
X+026690Y+010121
X+008180Y+004450
T04
X+026685Y+012445
X+026685Y+005445
X+005190Y+005440
X+005190Y+012440
T00
M30
