G04 DipTrace 2.4.0.2*
%INTop.gbr*%
%MOIN*%
%ADD10C,0.0098*%
%ADD13C,0.01*%
%ADD14C,0.008*%
%ADD16R,0.0591X0.0512*%
%ADD17R,0.059X0.059*%
%ADD18C,0.0591*%
%ADD19R,0.0394X0.0433*%
%ADD20R,0.0433X0.0394*%
%ADD21C,0.1575*%
%ADD22C,0.18*%
%ADD24R,0.0197X0.0335*%
%ADD25R,0.0236X0.0098*%
%ADD26R,0.0126X0.0197*%
%ADD27R,0.0197X0.0126*%
%ADD29O,0.0138X0.0335*%
%ADD30O,0.0335X0.0138*%
%ADD31R,0.0945X0.0945*%
%ADD32R,0.0433X0.0236*%
%ADD33R,0.0354X0.0276*%
%ADD34C,0.04*%
%FSLAX44Y44*%
G04*
G70*
G90*
G75*
G01*
%LNTop*%
%LPD*%
X20190Y12945D2*
D13*
X19445D1*
X19440Y12949D1*
X17574Y11800D2*
X18291D1*
X19440Y12949D1*
X21190Y12945D2*
X21940D1*
X22690D1*
Y12949D1*
X18129Y8253D2*
Y8879D1*
X19440Y10190D1*
X21690D1*
X23190Y11690D1*
Y12690D1*
X22940Y12940D1*
X22699D1*
X6470Y8810D2*
Y6160D1*
X8180Y4450D1*
X15194Y6727D2*
D10*
X15026D1*
D13*
X14727D1*
X13190Y5190D1*
X11930D1*
X11185Y4445D1*
X15194Y6924D2*
D10*
X15026D1*
D13*
X14674D1*
X13190Y5440D1*
X11180D1*
X10185Y4445D1*
X15194Y5940D2*
D10*
Y5841D1*
D13*
Y4454D1*
X15185Y4445D1*
X13940Y7690D2*
Y9430D1*
X12190Y11180D1*
X16038Y11800D2*
X16678D1*
X16806Y11672D1*
X17190Y12440D2*
Y12056D1*
X16806Y11672D1*
X17574Y12056D2*
X17190D1*
X16690Y7121D2*
D10*
X16560D1*
D13*
X16440Y7002D1*
Y5940D1*
X16522D1*
D10*
X16690D1*
X19440Y11690D2*
D13*
Y12280D1*
X17574Y12056D2*
Y12324D1*
X18190Y12940D1*
X24190Y11690D2*
Y12690D1*
X16690Y7121D2*
X16636D1*
X16504Y7253D1*
Y7565D1*
X17379Y8628D2*
X17629D1*
X17754Y8503D1*
Y8272D1*
X17735Y8253D1*
X15191Y9067D2*
X15688D1*
X15753Y9003D1*
Y9628D1*
X15109Y10271D1*
X26690Y10121D2*
X27235Y9576D1*
Y7214D1*
X21402D1*
X21130Y6943D1*
Y5390D1*
X20185Y4445D1*
X21402Y7214D2*
Y7869D1*
X20830Y8440D1*
X20359D1*
X15753Y9003D2*
Y8253D1*
X15440Y7940D1*
Y7878D1*
X16690Y5940D2*
Y5753D1*
X16190Y5253D1*
X17190Y12440D2*
Y12690D1*
X17440Y12940D1*
X15109Y10271D2*
X15583D1*
X15628Y10315D1*
X18190Y12940D2*
Y13174D1*
X17924Y13440D1*
X24190Y11690D2*
X24440D1*
X24731Y11400D1*
X17827Y6815D2*
Y6577D1*
X17690Y6440D1*
X24190Y11690D2*
Y10505D1*
X24380Y10316D1*
X23255Y10503D2*
Y10441D1*
X22504Y9691D1*
X20754D1*
X20442Y9378D1*
X16422Y12440D2*
X15690D1*
X14685Y13445D1*
X14255D1*
X13255D2*
X13435D1*
X13940Y12940D1*
X14752D1*
X15636Y12056D1*
X16038D1*
Y11544D2*
Y11565D1*
X15815D1*
X14690Y12690D1*
X13940D1*
X13690Y12940D1*
X12940D1*
X12435Y13445D1*
X12255D1*
X16038Y11288D2*
Y11253D1*
X15815D1*
X14627Y12440D1*
X13940D1*
X13690Y12690D1*
X12940D1*
X12690Y12940D1*
X12002D1*
X11497Y13445D1*
X11255D1*
X16422Y10905D2*
X15850D1*
X14565Y12190D1*
X13940D1*
X13690Y12440D1*
X12940D1*
X12690Y12690D1*
X11190D1*
X10435Y13445D1*
X10255D1*
X16678Y10905D2*
X16690D1*
Y10753D1*
X16378Y10440D1*
X16002D1*
X14502Y11940D1*
X13940D1*
X13690Y12190D1*
X12940D1*
X12690Y12440D1*
X10260D1*
X9255Y13445D1*
X25065Y13440D2*
X24192D1*
X24190Y13438D1*
X16678Y12440D2*
Y12702D1*
X16440Y12940D1*
X16190D1*
X16690Y6137D2*
D10*
X16858D1*
D13*
X16993D1*
X17190Y5940D1*
Y5440D1*
X17180D1*
X16185Y4445D1*
X19690Y8440D2*
X18692D1*
Y8565D1*
X17499Y8025D2*
X17276D1*
X17129Y7878D1*
X16941D1*
X17538Y7796D2*
X17422D1*
X17004Y7378D1*
X17735Y7796D2*
Y7609D1*
X17504Y7378D1*
X15194Y6137D2*
D10*
X15026D1*
D13*
X14887D1*
X14185Y5435D1*
Y4445D1*
X13440Y6190D2*
X12190D1*
Y6440D1*
X16690Y6334D2*
D10*
X16858D1*
D13*
X17046D1*
X17440Y5940D1*
Y4700D1*
X17185Y4445D1*
X17190Y10905D2*
Y10440D1*
X17940Y9690D1*
X21940Y12275D2*
Y11690D1*
X21440Y11190D1*
X16254Y8693D2*
X16943D1*
X17940Y9690D1*
X19065Y8940D2*
X23190D1*
X23690Y9440D1*
X25371Y7759D1*
X26690D1*
X23690Y9440D2*
Y11190D1*
X23640D1*
X19695Y7690D2*
Y7565D1*
X19315D1*
X19065Y7815D1*
X18168Y8025D2*
X18855D1*
X19065Y7815D1*
X16690Y6531D2*
D10*
X16858D1*
D13*
X17099D1*
X18185Y5445D1*
Y4445D1*
X19695Y5955D1*
Y6940D1*
Y6810D1*
X19065Y7440D1*
X18379D1*
X18129Y7690D1*
Y7796D1*
X17574Y11288D2*
X18592D1*
X19190Y10690D1*
X19440Y10440D1*
X21440D1*
X22690Y11690D1*
Y12280D1*
X16254Y9441D2*
X16939D1*
X16940Y9440D1*
Y9690D1*
X17940Y10690D2*
X19190D1*
X21190Y12275D2*
Y12315D1*
X21065D1*
X20690Y12690D1*
X20275Y12275D1*
X20190D1*
X19185Y4445D2*
Y4435D1*
X20445Y5695D1*
Y6859D1*
X20364Y6940D1*
Y7690D1*
X17574Y11544D2*
X18836D1*
X19190Y11190D1*
X19690D1*
X20190Y11690D1*
Y12275D1*
X21190D2*
Y11690D1*
X20440Y10940D1*
X14440Y8940D2*
Y8690D1*
X14690Y8440D1*
X14939D1*
X15191Y8693D1*
X25065Y12771D2*
Y9690D1*
X25421Y9334D1*
X26690D1*
X20690Y12940D2*
Y12690D1*
X14690Y7815D2*
Y8191D1*
X15191Y8693D1*
X18436Y13440D2*
X20565D1*
X20690Y13315D1*
Y12940D1*
X25400Y11400D2*
Y10624D1*
X26690Y9334D1*
X16690Y6924D2*
D10*
X16858D1*
D13*
X17206D1*
X17315Y6815D1*
X17932Y7796D2*
Y7306D1*
X17691Y7065D1*
X17565D1*
X17315Y6815D1*
X17932Y7796D2*
Y7575D1*
X19004Y6503D1*
Y6126D1*
X19190Y5940D1*
X15194Y7121D2*
D10*
X15026D1*
D13*
X13259D1*
X12690Y7690D1*
X9190D1*
X8690Y7190D1*
Y4690D1*
X8935Y4445D1*
X9185D1*
X15194Y7121D2*
D10*
X15371D1*
D13*
X16503Y8253D1*
X17538D1*
X15194Y6531D2*
D10*
X15026D1*
D13*
X14781D1*
X13190Y4940D1*
X12680D1*
X12185Y4445D1*
X14597Y10271D2*
X13797D1*
X13753Y10315D1*
X14440Y9609D2*
Y9628D1*
X13753Y10315D1*
X16934Y12440D2*
Y12946D1*
X16690Y13190D1*
X16934Y10905D2*
Y10196D1*
X16940Y10190D1*
X15194Y6334D2*
D10*
X15026D1*
D13*
X14834D1*
X13190Y4690D1*
Y4450D1*
X13185Y4445D1*
X11690Y8190D2*
X12200D1*
X12820Y8810D1*
D34*
X17690Y6440D3*
X16690Y13190D3*
X13940Y7690D3*
X19440Y11690D3*
X18190Y12940D3*
X17940Y9690D3*
X13440Y6190D3*
X11690Y8190D3*
X19190Y5940D3*
X16504Y7565D3*
X17379Y8628D3*
X16940Y10190D3*
X16190Y12940D3*
X24190Y11690D3*
X21440Y11190D3*
X20440Y10940D3*
X13753Y10315D3*
X18692Y8565D3*
X19065Y8940D3*
X14690Y7815D3*
X16940Y9690D3*
X17940Y10690D3*
X20690Y12940D3*
X16190Y5253D3*
X19065Y7815D3*
X15628Y10315D3*
X17440Y12940D3*
X15440Y7878D3*
X23640Y11190D3*
X7440Y12128D3*
Y11003D3*
X7690Y6503D3*
X6690Y4815D3*
X16941Y7878D3*
X17004Y7378D3*
X17504D3*
X20442Y9378D3*
X23255Y10503D3*
X24380Y10316D3*
X22254Y6628D3*
X22504Y8003D3*
X9816Y9441D3*
X4690Y9691D3*
X4598Y13541D2*
D13*
X8704D1*
X16987D2*
X17482D1*
X20904D2*
X23631D1*
X25526D2*
X27285D1*
X4470Y13443D2*
X4864D1*
X5516D2*
X8696D1*
X17077D2*
X17482D1*
X20976D2*
X23631D1*
X25526D2*
X26343D1*
X27026D2*
X27414D1*
X4388Y13344D2*
X4643D1*
X5737D2*
X8706D1*
X17127D2*
X17482D1*
X23151D2*
X23631D1*
X25526D2*
X26131D1*
X27240D2*
X27493D1*
X4327Y13245D2*
X4504D1*
X5876D2*
X8734D1*
X17151D2*
X17482D1*
X23151D2*
X23631D1*
X25526D2*
X25993D1*
X27377D2*
X27554D1*
X4287Y13147D2*
X4401D1*
X5979D2*
X8784D1*
X17173D2*
X17482D1*
X23173D2*
X23631D1*
X25526D2*
X25892D1*
X27477D2*
X27595D1*
X4266Y13048D2*
X4323D1*
X6057D2*
X8867D1*
X17230D2*
X18979D1*
X23271D2*
X23631D1*
X25526D2*
X25814D1*
X27555D2*
X27614D1*
X6120Y12949D2*
X9009D1*
X17248D2*
X18979D1*
X23371D2*
X23631D1*
X25526D2*
X25753D1*
X6168Y12851D2*
X9410D1*
X17282D2*
X18901D1*
X23459D2*
X23631D1*
X25526D2*
X25706D1*
X6204Y12752D2*
X9509D1*
X17441D2*
X18803D1*
X23498D2*
X23631D1*
X25526D2*
X25670D1*
X6229Y12653D2*
X9607D1*
X17502D2*
X18704D1*
X23504D2*
X23631D1*
X25526D2*
X25645D1*
X6245Y12554D2*
X9706D1*
X17523D2*
X18606D1*
X23504D2*
X23631D1*
X25526D2*
X25629D1*
X6251Y12456D2*
X9804D1*
X17523D2*
X18507D1*
X23504D2*
X23631D1*
X25526D2*
X25625D1*
X6248Y12357D2*
X9525D1*
X17799D2*
X18407D1*
X23504D2*
X23631D1*
X25526D2*
X25628D1*
X6235Y12258D2*
X9312D1*
X17934D2*
X18309D1*
X23504D2*
X23631D1*
X25379D2*
X25640D1*
X6213Y12160D2*
X9181D1*
X17988D2*
X18210D1*
X23504D2*
X24751D1*
X25379D2*
X25664D1*
X6180Y12061D2*
X9085D1*
X10554D2*
X11625D1*
X23504D2*
X24751D1*
X25379D2*
X25696D1*
X6137Y11962D2*
X9014D1*
X10626D2*
X11493D1*
X23504D2*
X24751D1*
X25379D2*
X25742D1*
X6079Y11864D2*
X8959D1*
X10680D2*
X11395D1*
X12985D2*
X13576D1*
X23504D2*
X24751D1*
X25379D2*
X25800D1*
X27571D2*
X27631D1*
X4251Y11765D2*
X4375D1*
X6005D2*
X8920D1*
X10721D2*
X11318D1*
X13062D2*
X13676D1*
X23504D2*
X24250D1*
X27496D2*
X27631D1*
X4251Y11666D2*
X4468D1*
X5912D2*
X8892D1*
X10748D2*
X11259D1*
X13121D2*
X13798D1*
X23502D2*
X24250D1*
X25880D2*
X25968D1*
X27401D2*
X27631D1*
X4251Y11568D2*
X4593D1*
X5787D2*
X8875D1*
X10765D2*
X11214D1*
X13166D2*
X14435D1*
X23902D2*
X24250D1*
X25880D2*
X26096D1*
X27274D2*
X27631D1*
X4251Y11469D2*
X4778D1*
X5602D2*
X8868D1*
X10771D2*
X11179D1*
X13201D2*
X14534D1*
X24009D2*
X24250D1*
X25880D2*
X26285D1*
X27085D2*
X27631D1*
X4251Y11370D2*
X8873D1*
X10766D2*
X11156D1*
X13224D2*
X14592D1*
X24066D2*
X24250D1*
X25880D2*
X27631D1*
X4251Y11272D2*
X8887D1*
X10752D2*
X11143D1*
X13237D2*
X14592D1*
X24096D2*
X24250D1*
X25880D2*
X27631D1*
X4251Y11173D2*
X8914D1*
X10726D2*
X11139D1*
X13241D2*
X14592D1*
X23113D2*
X23176D1*
X24104D2*
X24250D1*
X25880D2*
X27631D1*
X4251Y11074D2*
X8951D1*
X10688D2*
X11145D1*
X13235D2*
X14592D1*
X23013D2*
X23192D1*
X24088D2*
X24250D1*
X25880D2*
X27631D1*
X4251Y10975D2*
X9003D1*
X10637D2*
X11159D1*
X13221D2*
X14592D1*
X22915D2*
X23231D1*
X24049D2*
X24250D1*
X25880D2*
X27631D1*
X4251Y10877D2*
X9071D1*
X10570D2*
X11184D1*
X13196D2*
X14592D1*
X22816D2*
X23301D1*
X24004D2*
X24751D1*
X25713D2*
X27631D1*
X4251Y10778D2*
X9160D1*
X10479D2*
X11220D1*
X13160D2*
X14592D1*
X15116D2*
X15225D1*
X22718D2*
X23376D1*
X24004D2*
X24751D1*
X25713D2*
X27631D1*
X4251Y10679D2*
X9284D1*
X10355D2*
X11267D1*
X13130D2*
X13471D1*
X14034D2*
X14235D1*
X22620D2*
X23376D1*
X24004D2*
X24751D1*
X25784D2*
X27631D1*
X4251Y10581D2*
X9475D1*
X10166D2*
X11329D1*
X13229D2*
X13375D1*
X14130D2*
X14235D1*
X22521D2*
X23376D1*
X24004D2*
X24751D1*
X25884D2*
X26379D1*
X27001D2*
X27631D1*
X4251Y10482D2*
X11407D1*
X15471D2*
X15521D1*
X22421D2*
X23376D1*
X24004D2*
X24751D1*
X25982D2*
X26267D1*
X27113D2*
X27631D1*
X4251Y10383D2*
X11509D1*
X15471D2*
X15620D1*
X22323D2*
X23376D1*
X24004D2*
X24751D1*
X26080D2*
X26198D1*
X27182D2*
X27631D1*
X4251Y10285D2*
X11648D1*
X15471D2*
X15718D1*
X22224D2*
X23376D1*
X24004D2*
X24751D1*
X27224D2*
X27631D1*
X4251Y10186D2*
X11870D1*
X12510D2*
X12745D1*
X15471D2*
X15826D1*
X22126D2*
X23376D1*
X24004D2*
X24751D1*
X27246D2*
X27631D1*
X4251Y10087D2*
X12843D1*
X15471D2*
X16489D1*
X22027D2*
X23376D1*
X24004D2*
X24751D1*
X27248D2*
X27631D1*
X4251Y9989D2*
X12942D1*
X15471D2*
X16523D1*
X21929D2*
X23376D1*
X24004D2*
X24751D1*
X27234D2*
X27631D1*
X4251Y9890D2*
X12403D1*
X15471D2*
X16523D1*
X21748D2*
X23376D1*
X24004D2*
X24751D1*
X27198D2*
X27631D1*
X4251Y9791D2*
X6112D1*
X6829D2*
X12203D1*
X14901D2*
X15775D1*
X19480D2*
X23376D1*
X24004D2*
X24751D1*
X27138D2*
X27631D1*
X4251Y9693D2*
X5907D1*
X7032D2*
X12067D1*
X15571D2*
X15775D1*
X19382D2*
X23376D1*
X24004D2*
X24751D1*
X27116D2*
X27631D1*
X4251Y9594D2*
X5775D1*
X7165D2*
X11964D1*
X15571D2*
X15775D1*
X19284D2*
X23376D1*
X24004D2*
X24767D1*
X27184D2*
X27631D1*
X4251Y9495D2*
X5676D1*
X7265D2*
X11881D1*
X15571D2*
X15775D1*
X19185D2*
X23306D1*
X24074D2*
X24821D1*
X27224D2*
X27631D1*
X4251Y9396D2*
X5600D1*
X7340D2*
X11817D1*
X15671D2*
X15775D1*
X19087D2*
X23207D1*
X24173D2*
X24918D1*
X27246D2*
X27631D1*
X4251Y9298D2*
X5540D1*
X7399D2*
X11764D1*
X15671D2*
X15775D1*
X19354D2*
X23107D1*
X24273D2*
X25018D1*
X27248D2*
X27631D1*
X4251Y9199D2*
X5495D1*
X7446D2*
X11723D1*
X15671D2*
X15775D1*
X24371D2*
X25117D1*
X27232D2*
X27631D1*
X4251Y9100D2*
X5460D1*
X7480D2*
X11693D1*
X15671D2*
X15775D1*
X16735D2*
X16910D1*
X24470D2*
X25217D1*
X27198D2*
X27631D1*
X4251Y9002D2*
X5437D1*
X7504D2*
X11671D1*
X15671D2*
X15775D1*
X16735D2*
X16812D1*
X24568D2*
X26243D1*
X27137D2*
X27631D1*
X4251Y8903D2*
X5423D1*
X7516D2*
X11660D1*
X15671D2*
X15775D1*
X23593D2*
X23787D1*
X24666D2*
X26262D1*
X27118D2*
X27631D1*
X4251Y8804D2*
X5418D1*
X7521D2*
X11656D1*
X15671D2*
X15775D1*
X23495D2*
X23885D1*
X24765D2*
X26195D1*
X27185D2*
X27631D1*
X4251Y8706D2*
X5425D1*
X7516D2*
X11660D1*
X15671D2*
X15775D1*
X23393D2*
X23984D1*
X24865D2*
X26154D1*
X27226D2*
X27631D1*
X4251Y8607D2*
X5439D1*
X7501D2*
X11501D1*
X15671D2*
X15775D1*
X20840D2*
X24084D1*
X24963D2*
X26134D1*
X27246D2*
X27631D1*
X4251Y8508D2*
X5464D1*
X7477D2*
X11356D1*
X15671D2*
X15775D1*
X20840D2*
X24182D1*
X25062D2*
X26132D1*
X27248D2*
X27631D1*
X4251Y8410D2*
X5500D1*
X7441D2*
X11282D1*
X15671D2*
X15775D1*
X20840D2*
X24281D1*
X25160D2*
X26148D1*
X27232D2*
X27631D1*
X4251Y8311D2*
X5546D1*
X7395D2*
X11243D1*
X15249D2*
X16121D1*
X20840D2*
X24379D1*
X25259D2*
X26184D1*
X27196D2*
X27631D1*
X4251Y8212D2*
X5607D1*
X7332D2*
X11226D1*
X15151D2*
X16023D1*
X20840D2*
X24478D1*
X25357D2*
X26131D1*
X27249D2*
X27631D1*
X4251Y8114D2*
X5685D1*
X7254D2*
X11232D1*
X15052D2*
X15925D1*
X20845D2*
X24576D1*
X25455D2*
X26131D1*
X27249D2*
X27631D1*
X4251Y8015D2*
X5787D1*
X7152D2*
X11262D1*
X15107D2*
X15825D1*
X20845D2*
X24676D1*
X27249D2*
X27631D1*
X4251Y7916D2*
X5926D1*
X7013D2*
X8978D1*
X15143D2*
X15726D1*
X20845D2*
X24775D1*
X27249D2*
X27631D1*
X4251Y7817D2*
X6145D1*
X6795D2*
X8878D1*
X15154D2*
X15628D1*
X20845D2*
X24873D1*
X27249D2*
X27631D1*
X4251Y7719D2*
X6156D1*
X6784D2*
X8779D1*
X15143D2*
X15529D1*
X16409D2*
X16506D1*
X20845D2*
X24971D1*
X27249D2*
X27631D1*
X4251Y7620D2*
X6156D1*
X6784D2*
X8681D1*
X15110D2*
X15431D1*
X16310D2*
X16557D1*
X20845D2*
X25070D1*
X27249D2*
X27631D1*
X4251Y7521D2*
X6156D1*
X6784D2*
X8582D1*
X15046D2*
X15332D1*
X16212D2*
X16564D1*
X20845D2*
X25171D1*
X27249D2*
X27631D1*
X4251Y7423D2*
X6156D1*
X6784D2*
X8482D1*
X16112D2*
X16307D1*
X20845D2*
X26131D1*
X27249D2*
X27631D1*
X4251Y7324D2*
X6156D1*
X6784D2*
X8407D1*
X16013D2*
X16307D1*
X20845D2*
X26131D1*
X27249D2*
X27631D1*
X4251Y7225D2*
X6156D1*
X6784D2*
X8378D1*
X15915D2*
X16307D1*
X20845D2*
X26131D1*
X27249D2*
X27631D1*
X4251Y7127D2*
X6156D1*
X6784D2*
X8376D1*
X15816D2*
X16307D1*
X20845D2*
X27631D1*
X4251Y7028D2*
X6156D1*
X6784D2*
X8376D1*
X15718D2*
X16307D1*
X20845D2*
X27631D1*
X4251Y6929D2*
X6156D1*
X6784D2*
X8376D1*
X15620D2*
X16307D1*
X20845D2*
X27631D1*
X4251Y6831D2*
X6156D1*
X6784D2*
X8376D1*
X15576D2*
X16307D1*
X20845D2*
X27631D1*
X4251Y6732D2*
X6156D1*
X6784D2*
X8376D1*
X15576D2*
X16307D1*
X18268D2*
X18335D1*
X20845D2*
X27631D1*
X4251Y6633D2*
X6156D1*
X6784D2*
X8376D1*
X15576D2*
X16307D1*
X18268D2*
X18434D1*
X20845D2*
X27631D1*
X4251Y6535D2*
X6156D1*
X6784D2*
X8376D1*
X15576D2*
X16307D1*
X18268D2*
X18532D1*
X20845D2*
X27631D1*
X4251Y6436D2*
X4843D1*
X5537D2*
X6156D1*
X6784D2*
X8376D1*
X15576D2*
X16307D1*
X18268D2*
X18631D1*
X20759D2*
X26325D1*
X27046D2*
X27631D1*
X4251Y6337D2*
X4632D1*
X5748D2*
X6156D1*
X6784D2*
X8376D1*
X15576D2*
X16307D1*
X17732D2*
X18690D1*
X20759D2*
X26118D1*
X27251D2*
X27631D1*
X4251Y6238D2*
X4496D1*
X5884D2*
X6156D1*
X6832D2*
X8376D1*
X15576D2*
X16307D1*
X17832D2*
X18690D1*
X20759D2*
X25985D1*
X27385D2*
X27631D1*
X4251Y6140D2*
X4395D1*
X5985D2*
X6157D1*
X6930D2*
X8376D1*
X15576D2*
X16307D1*
X17930D2*
X18690D1*
X20759D2*
X25885D1*
X27484D2*
X27631D1*
X4251Y6041D2*
X4319D1*
X6062D2*
X6181D1*
X7029D2*
X8376D1*
X15576D2*
X16307D1*
X18029D2*
X18703D1*
X20759D2*
X25809D1*
X27560D2*
X27631D1*
X6123Y5942D2*
X6248D1*
X7127D2*
X8376D1*
X15576D2*
X16307D1*
X18127D2*
X18726D1*
X20759D2*
X25750D1*
X6171Y5844D2*
X6346D1*
X7226D2*
X8376D1*
X15576D2*
X16307D1*
X18226D2*
X18737D1*
X20759D2*
X25703D1*
X6205Y5745D2*
X6445D1*
X7324D2*
X8376D1*
X15576D2*
X16307D1*
X18324D2*
X18770D1*
X20759D2*
X25668D1*
X6230Y5646D2*
X6543D1*
X7423D2*
X8376D1*
X15576D2*
X16307D1*
X18423D2*
X18834D1*
X20754D2*
X25643D1*
X6246Y5548D2*
X6643D1*
X7523D2*
X8376D1*
X15507D2*
X16848D1*
X18480D2*
X18848D1*
X20721D2*
X25629D1*
X6251Y5449D2*
X6742D1*
X7621D2*
X8376D1*
X15507D2*
X16750D1*
X18499D2*
X18750D1*
X20638D2*
X25625D1*
X6248Y5350D2*
X6840D1*
X7720D2*
X8376D1*
X15507D2*
X16651D1*
X18499D2*
X18651D1*
X20540D2*
X25628D1*
X6234Y5252D2*
X6939D1*
X7818D2*
X8376D1*
X15507D2*
X16551D1*
X18499D2*
X18551D1*
X20441D2*
X25642D1*
X6212Y5153D2*
X7037D1*
X7916D2*
X8376D1*
X15507D2*
X16453D1*
X20343D2*
X25665D1*
X6177Y5054D2*
X7135D1*
X8015D2*
X8376D1*
X15507D2*
X16354D1*
X20245D2*
X25700D1*
X6134Y4955D2*
X7235D1*
X15507D2*
X15973D1*
X20745D2*
X25745D1*
X6074Y4857D2*
X7334D1*
X15559D2*
X15812D1*
X20745D2*
X25804D1*
X27566D2*
X27618D1*
X4277Y4758D2*
X4379D1*
X6001D2*
X7432D1*
X15646D2*
X15725D1*
X20745D2*
X25879D1*
X27491D2*
X27604D1*
X4318Y4659D2*
X4476D1*
X5904D2*
X7531D1*
X20745D2*
X25976D1*
X27393D2*
X27564D1*
X4370Y4561D2*
X4604D1*
X5776D2*
X7629D1*
X20745D2*
X26107D1*
X27263D2*
X27514D1*
X4445Y4462D2*
X4795D1*
X5585D2*
X7621D1*
X20745D2*
X26303D1*
X27068D2*
X27437D1*
X4565Y4363D2*
X7628D1*
X20745D2*
X27317D1*
X4780Y4265D2*
X7653D1*
X20745D2*
X27104D1*
X24739Y12300D2*
Y12180D1*
X23641D1*
Y13639D1*
X23024Y13640D1*
X20794D1*
X20905Y13530D1*
X20937Y13492D1*
X20955Y13463D1*
X20976Y13416D1*
X21189Y13415D1*
X21641Y13414D1*
X21739Y13415D1*
X22241D1*
X22239Y13420D1*
X23141D1*
Y13168D1*
X23405Y12905D1*
X23437Y12867D1*
X23463Y12824D1*
X23481Y12778D1*
X23489Y12745D1*
X23494Y12690D1*
Y11690D1*
X23492Y11655D1*
X23503Y11623D1*
X23551Y11635D1*
X23601Y11642D1*
X23651Y11644D1*
X23700Y11640D1*
X23749Y11631D1*
X23797Y11616D1*
X23843Y11596D1*
X23886Y11571D1*
X23927Y11542D1*
X23964Y11508D1*
X23997Y11471D1*
X24026Y11430D1*
X24050Y11386D1*
X24069Y11340D1*
X24082Y11292D1*
X24091Y11242D1*
X24094Y11190D1*
X24091Y11140D1*
X24083Y11091D1*
X24069Y11043D1*
X24051Y10996D1*
X24027Y10952D1*
X23993Y10905D1*
X23994Y9567D1*
X25497Y8063D1*
X26141D1*
Y8308D1*
X26196D1*
X26169Y8374D1*
X26146Y8471D1*
X26141Y8571D1*
X26155Y8670D1*
X26186Y8765D1*
X26234Y8852D1*
X26297Y8930D1*
X26307Y8939D1*
X26264Y8987D1*
X26232Y9031D1*
X25690Y9030D1*
X25421D1*
X25371Y9034D1*
X25323Y9046D1*
X25277Y9066D1*
X25248Y9084D1*
X25206Y9119D1*
X24850Y9475D1*
X24818Y9513D1*
X24792Y9556D1*
X24774Y9603D1*
X24766Y9635D1*
X24761Y9690D1*
Y10949D1*
X24260D1*
Y11851D1*
X24761D1*
Y12301D1*
X27183Y8308D2*
X27239D1*
Y7210D1*
X26141D1*
X26140Y7455D1*
X25371D1*
X25321Y7459D1*
X25273Y7471D1*
X25227Y7491D1*
X25198Y7509D1*
X25156Y7544D1*
X23690Y9010D1*
X23405Y8725D1*
X23367Y8693D1*
X23324Y8667D1*
X23278Y8649D1*
X23245Y8641D1*
X23190Y8636D1*
X20829D1*
X20830Y8371D1*
Y8141D1*
X20834D1*
X20833Y7239D1*
X20834Y7141D1*
Y6489D1*
X20749D1*
Y5695D1*
X20745Y5645D1*
X20732Y5596D1*
X20712Y5551D1*
X20695Y5522D1*
X20660Y5480D1*
X20176Y4994D1*
X20734D1*
Y4240D1*
X26922D1*
X27123Y4266D1*
X27290Y4335D1*
X27434Y4445D1*
X27545Y4590D1*
X27614Y4758D1*
X27640Y4960D1*
X27620Y4964D1*
X27570Y4877D1*
X27512Y4796D1*
X27446Y4720D1*
X27374Y4651D1*
X27296Y4589D1*
X27211Y4535D1*
X27123Y4489D1*
X27030Y4452D1*
X26934Y4424D1*
X26836Y4405D1*
X26736Y4395D1*
X26636D1*
X26537Y4404D1*
X26439Y4423D1*
X26343Y4451D1*
X26250Y4488D1*
X26161Y4534D1*
X26077Y4588D1*
X25998Y4649D1*
X25926Y4718D1*
X25860Y4793D1*
X25802Y4875D1*
X25752Y4961D1*
X25710Y5052D1*
X25677Y5146D1*
X25653Y5243D1*
X25639Y5342D1*
X25634Y5442D1*
X25638Y5542D1*
X25652Y5641D1*
X25675Y5738D1*
X25708Y5833D1*
X25749Y5924D1*
X25799Y6011D1*
X25857Y6092D1*
X25922Y6168D1*
X25994Y6237D1*
X26072Y6299D1*
X26156Y6354D1*
X26245Y6400D1*
X26337Y6437D1*
X26433Y6466D1*
X26531Y6485D1*
X26631Y6495D1*
X26731D1*
X26830Y6486D1*
X26929Y6468D1*
X27025Y6440D1*
X27118Y6403D1*
X27207Y6358D1*
X27291Y6304D1*
X27370Y6243D1*
X27442Y6174D1*
X27508Y6099D1*
X27567Y6018D1*
X27617Y5931D1*
X27640Y5885D1*
Y12004D1*
X27596Y11920D1*
X27542Y11836D1*
X27480Y11757D1*
X27411Y11685D1*
X27336Y11619D1*
X27254Y11561D1*
X27168Y11511D1*
X27077Y11469D1*
X26982Y11437D1*
X26885Y11413D1*
X26786Y11399D1*
X26686Y11394D1*
X26587Y11398D1*
X26488Y11412D1*
X26390Y11436D1*
X26296Y11468D1*
X26205Y11510D1*
X26118Y11560D1*
X26037Y11617D1*
X25961Y11683D1*
X25892Y11755D1*
X25871Y11780D1*
X25870Y10949D1*
X25703D1*
X25704Y10748D1*
X25933Y10521D1*
X26166Y10288D1*
X26194Y10358D1*
X26228Y10419D1*
X26270Y10475D1*
X26318Y10526D1*
X26373Y10570D1*
X26432Y10606D1*
X26496Y10635D1*
X26563Y10656D1*
X26632Y10667D1*
X26702Y10670D1*
X26771Y10665D1*
X26840Y10650D1*
X26906Y10626D1*
X26968Y10595D1*
X27026Y10556D1*
X27079Y10510D1*
X27125Y10457D1*
X27164Y10399D1*
X27195Y10337D1*
X27219Y10271D1*
X27233Y10202D1*
X27239Y10132D1*
X27236Y10061D1*
X27224Y9992D1*
X27203Y9926D1*
X27174Y9862D1*
X27137Y9803D1*
X27093Y9748D1*
X27073Y9728D1*
X27131Y9662D1*
X27183Y9576D1*
X27219Y9483D1*
X27237Y9385D1*
Y9284D1*
X27219Y9186D1*
X27183Y9092D1*
X27131Y9007D1*
X27073Y8940D1*
X27131Y8874D1*
X27183Y8789D1*
X27219Y8696D1*
X27237Y8598D1*
Y8497D1*
X27219Y8398D1*
X27185Y8309D1*
X15685Y4671D2*
X15730Y4752D1*
X15793Y4829D1*
X15869Y4894D1*
X15955Y4944D1*
X16049Y4977D1*
X16148Y4993D1*
X16248Y4990D1*
X16292Y4983D1*
X16886Y5576D1*
Y5638D1*
X16852Y5637D1*
X16318D1*
X16319Y6440D1*
X16318Y6480D1*
X16319Y6637D1*
X16318Y6677D1*
X16319Y6834D1*
X16318Y6868D1*
Y7424D1*
X16553D1*
X16567Y7500D1*
X16598Y7580D1*
X16543Y7661D1*
X16521Y7706D1*
X16505Y7753D1*
X16493Y7813D1*
X15573Y6895D1*
X15566Y6881D1*
X15564Y6424D1*
X15566Y6384D1*
X15564Y6227D1*
X15566Y6187D1*
X15564Y6030D1*
X15566Y5990D1*
X15564Y5834D1*
X15566Y5793D1*
Y5637D1*
X15499D1*
X15498Y4895D1*
X15560Y4846D1*
X15626Y4771D1*
X15678Y4686D1*
X15685Y4670D1*
X9362Y12907D2*
X9267Y12896D1*
X9168Y12903D1*
X9071Y12928D1*
X8980Y12970D1*
X8899Y13027D1*
X8829Y13099D1*
X8773Y13182D1*
X8734Y13273D1*
X8711Y13371D1*
X8707Y13470D1*
X8720Y13569D1*
X8742Y13639D1*
X7774Y13640D1*
X4959D1*
X4759Y13614D1*
X4592Y13544D1*
X4447Y13433D1*
X4336Y13289D1*
X4267Y13121D1*
X4240Y12920D1*
X4254Y12919D1*
X4304Y13006D1*
X4362Y13087D1*
X4427Y13163D1*
X4499Y13232D1*
X4577Y13294D1*
X4661Y13349D1*
X4750Y13395D1*
X4842Y13432D1*
X4938Y13461D1*
X5036Y13480D1*
X5136Y13490D1*
X5236D1*
X5335Y13481D1*
X5434Y13463D1*
X5530Y13435D1*
X5623Y13398D1*
X5712Y13353D1*
X5796Y13299D1*
X5875Y13238D1*
X5947Y13169D1*
X6013Y13094D1*
X6072Y13013D1*
X6122Y12926D1*
X6164Y12836D1*
X6197Y12741D1*
X6221Y12644D1*
X6236Y12545D1*
X6241Y12440D1*
X6237Y12340D1*
X6222Y12241D1*
X6199Y12144D1*
X6166Y12050D1*
X6125Y11959D1*
X6075Y11872D1*
X6017Y11791D1*
X5951Y11715D1*
X5879Y11646D1*
X5801Y11584D1*
X5716Y11530D1*
X5628Y11484D1*
X5535Y11447D1*
X5439Y11419D1*
X5341Y11400D1*
X5241Y11390D1*
X5141D1*
X5042Y11399D1*
X4944Y11418D1*
X4848Y11446D1*
X4755Y11483D1*
X4666Y11529D1*
X4582Y11583D1*
X4503Y11644D1*
X4431Y11713D1*
X4365Y11788D1*
X4307Y11870D1*
X4257Y11956D1*
X4240Y11991D1*
Y6174D1*
Y5891D1*
X4304Y6006D1*
X4362Y6087D1*
X4427Y6163D1*
X4499Y6232D1*
X4577Y6294D1*
X4661Y6349D1*
X4750Y6395D1*
X4842Y6432D1*
X4938Y6461D1*
X5036Y6480D1*
X5136Y6490D1*
X5236D1*
X5335Y6481D1*
X5434Y6463D1*
X5530Y6435D1*
X5623Y6398D1*
X5712Y6353D1*
X5796Y6299D1*
X5875Y6238D1*
X5947Y6169D1*
X6013Y6094D1*
X6072Y6013D1*
X6122Y5926D1*
X6164Y5836D1*
X6197Y5741D1*
X6221Y5644D1*
X6236Y5545D1*
X6241Y5440D1*
X6237Y5340D1*
X6222Y5241D1*
X6199Y5144D1*
X6166Y5050D1*
X6125Y4959D1*
X6075Y4872D1*
X6017Y4791D1*
X5951Y4715D1*
X5879Y4646D1*
X5801Y4584D1*
X5716Y4530D1*
X5628Y4484D1*
X5535Y4447D1*
X5439Y4419D1*
X5341Y4400D1*
X5241Y4390D1*
X5141D1*
X5042Y4399D1*
X4944Y4418D1*
X4848Y4446D1*
X4755Y4483D1*
X4666Y4529D1*
X4582Y4583D1*
X4503Y4644D1*
X4431Y4713D1*
X4365Y4788D1*
X4307Y4870D1*
X4257Y4956D1*
X4240Y4991D1*
X4246Y4913D1*
X4266Y4759D1*
X4336Y4592D1*
X4447Y4447D1*
X4591Y4336D1*
X4759Y4267D1*
X4960Y4240D1*
X7674D1*
X7645Y4325D1*
X7631Y4424D1*
X7636Y4524D1*
X7642Y4560D1*
X7258Y4942D1*
X6255Y5945D1*
X6223Y5983D1*
X6197Y6026D1*
X6179Y6073D1*
X6171Y6105D1*
X6166Y6160D1*
Y7815D1*
X6067Y7850D1*
X5976Y7893D1*
X5891Y7945D1*
X5811Y8004D1*
X5736Y8071D1*
X5669Y8145D1*
X5609Y8225D1*
X5557Y8310D1*
X5513Y8400D1*
X5478Y8493D1*
X5452Y8590D1*
X5436Y8689D1*
X5429Y8788D1*
X5432Y8888D1*
X5444Y8987D1*
X5466Y9085D1*
X5497Y9180D1*
X5537Y9272D1*
X5585Y9359D1*
X5642Y9441D1*
X5706Y9518D1*
X5778Y9588D1*
X5855Y9651D1*
X5939Y9706D1*
X6027Y9753D1*
X6119Y9791D1*
X6215Y9820D1*
X6313Y9840D1*
X6413Y9850D1*
X6512Y9851D1*
X6612Y9842D1*
X6710Y9823D1*
X6806Y9796D1*
X6899Y9759D1*
X6988Y9713D1*
X7073Y9659D1*
X7151Y9598D1*
X7224Y9529D1*
X7289Y9453D1*
X7347Y9372D1*
X7397Y9285D1*
X7438Y9194D1*
X7470Y9099D1*
X7494Y9002D1*
X7507Y8903D1*
X7511Y8810D1*
X7507Y8710D1*
X7492Y8611D1*
X7468Y8514D1*
X7436Y8420D1*
X7394Y8329D1*
X7343Y8243D1*
X7285Y8162D1*
X7219Y8086D1*
X7146Y8018D1*
X7067Y7957D1*
X6982Y7903D1*
X6893Y7858D1*
X6800Y7822D1*
X6775Y7814D1*
X6774Y6410D1*
Y6287D1*
X8072Y4988D1*
X8142Y4998D1*
X8241Y4996D1*
X8339Y4976D1*
X8385Y4960D1*
X8386Y5490D1*
Y7190D1*
X8390Y7240D1*
X8402Y7288D1*
X8422Y7334D1*
X8440Y7363D1*
X8475Y7405D1*
X8975Y7905D1*
X9013Y7937D1*
X9056Y7963D1*
X9102Y7981D1*
X9135Y7989D1*
X9190Y7994D1*
X11282D1*
X11253Y8065D1*
X11242Y8114D1*
X11237Y8164D1*
Y8214D1*
X11242Y8263D1*
X11253Y8312D1*
X11269Y8360D1*
X11290Y8405D1*
X11316Y8447D1*
X11347Y8487D1*
X11381Y8523D1*
X11420Y8555D1*
X11462Y8582D1*
X11506Y8605D1*
X11553Y8623D1*
X11601Y8635D1*
X11677Y8643D1*
X11666Y8785D1*
X11668Y8885D1*
X11679Y8984D1*
X11699Y9082D1*
X11726Y9178D1*
X11762Y9271D1*
X11806Y9361D1*
X11858Y9447D1*
X11916Y9528D1*
X11982Y9603D1*
X12054Y9673D1*
X12131Y9736D1*
X12214Y9792D1*
X12301Y9841D1*
X12392Y9882D1*
X12487Y9915D1*
X12584Y9940D1*
X12682Y9956D1*
X12782Y9963D1*
X12882Y9962D1*
X12989Y9951D1*
X12679Y10261D1*
X12613Y10228D1*
X12520Y10192D1*
X12424Y10165D1*
X12325Y10147D1*
X12226Y10139D1*
X12126Y10141D1*
X12027Y10152D1*
X11929Y10172D1*
X11833Y10202D1*
X11741Y10240D1*
X11653Y10288D1*
X11570Y10343D1*
X11493Y10407D1*
X11422Y10477D1*
X11358Y10554D1*
X11302Y10637D1*
X11254Y10724D1*
X11214Y10816D1*
X11184Y10911D1*
X11163Y11009D1*
X11151Y11108D1*
X11149Y11208D1*
X11156Y11308D1*
X11174Y11407D1*
X11200Y11503D1*
X11235Y11596D1*
X11280Y11686D1*
X11332Y11771D1*
X11393Y11850D1*
X11461Y11924D1*
X11536Y11990D1*
X11616Y12049D1*
X11702Y12100D1*
X11777Y12136D1*
X10476D1*
X10536Y12071D1*
X10597Y11992D1*
X10649Y11906D1*
X10692Y11816D1*
X10724Y11722D1*
X10747Y11624D1*
X10759Y11525D1*
X10760Y11410D1*
X10749Y11311D1*
X10728Y11213D1*
X10697Y11118D1*
X10656Y11027D1*
X10605Y10941D1*
X10546Y10860D1*
X10478Y10787D1*
X10403Y10721D1*
X10321Y10663D1*
X10234Y10615D1*
X10142Y10575D1*
X10047Y10546D1*
X9948Y10527D1*
X9849Y10519D1*
X9749Y10521D1*
X9650Y10534D1*
X9552Y10557D1*
X9458Y10591D1*
X9368Y10634D1*
X9283Y10687D1*
X9204Y10748D1*
X9132Y10817D1*
X9068Y10894D1*
X9012Y10977D1*
X8965Y11065D1*
X8928Y11158D1*
X8901Y11254D1*
X8885Y11353D1*
X8879Y11453D1*
X8883Y11552D1*
X8898Y11651D1*
X8924Y11748D1*
X8959Y11841D1*
X9005Y11930D1*
X9059Y12014D1*
X9122Y12092D1*
X9193Y12162D1*
X9271Y12225D1*
X9355Y12279D1*
X9445Y12323D1*
X9538Y12358D1*
X9635Y12383D1*
X9734Y12397D1*
X9834Y12401D1*
X9868Y12402D1*
X9363Y12907D1*
X14891Y9850D2*
Y9713D1*
X15562D1*
Y9439D1*
X15662D1*
Y8320D1*
X15248D1*
X15036Y8107D1*
X15076Y8055D1*
X15100Y8011D1*
X15119Y7965D1*
X15132Y7917D1*
X15141Y7867D1*
X15144Y7815D1*
X15141Y7765D1*
X15133Y7716D1*
X15119Y7668D1*
X15101Y7621D1*
X15077Y7577D1*
X15048Y7536D1*
X15016Y7499D1*
X14979Y7465D1*
X14921Y7425D1*
X15245Y7424D1*
X16111Y8291D1*
X16141Y8320D1*
X15784D1*
Y9065D1*
X16725D1*
Y8997D1*
X16818D1*
X16956Y9136D1*
X16725Y9137D1*
Y9068D1*
X15784D1*
Y9813D1*
X16504D1*
X16519Y9860D1*
X16540Y9905D1*
X16562Y9941D1*
X16541Y9973D1*
X16520Y10018D1*
X16503Y10065D1*
X16492Y10114D1*
X16488Y10156D1*
X16432Y10141D1*
X16378Y10136D1*
X16002D1*
X15953Y10140D1*
X15904Y10152D1*
X15859Y10172D1*
X15830Y10190D1*
X15788Y10225D1*
X15462Y10551D1*
Y9849D1*
X14892D1*
X18989Y12927D2*
Y13137D1*
X18867Y13136D1*
Y13048D1*
X18005Y13050D1*
X17985Y13048D1*
X17493D1*
Y13640D1*
X16750D1*
X16799Y13631D1*
X16847Y13616D1*
X16893Y13596D1*
X16936Y13571D1*
X16977Y13542D1*
X17014Y13508D1*
X17047Y13471D1*
X17076Y13430D1*
X17100Y13386D1*
X17119Y13340D1*
X17132Y13292D1*
X17141Y13242D1*
X17143Y13167D1*
X17181Y13123D1*
X17207Y13080D1*
X17225Y13033D1*
X17233Y13001D1*
X17238Y12946D1*
Y12858D1*
X17296Y12843D1*
X17351Y12818D1*
X17400Y12784D1*
X17442Y12741D1*
X17475Y12691D1*
X17498Y12636D1*
X17511Y12577D1*
X17513Y12498D1*
Y12399D1*
X17533D1*
Y12379D1*
X17701Y12378D1*
X17760Y12367D1*
X17815Y12346D1*
X17866Y12314D1*
X17911Y12274D1*
X17947Y12226D1*
X17974Y12172D1*
X17990Y12115D1*
X17992Y12104D1*
X18166D1*
X18990Y12929D1*
X25516Y13640D2*
X25514Y12969D1*
X25516Y12991D1*
Y12300D1*
X25367D1*
X25369Y12071D1*
Y11850D1*
X25818Y11851D1*
X25776Y11917D1*
X25730Y12006D1*
X25692Y12099D1*
X25664Y12195D1*
X25645Y12293D1*
X25635Y12392D1*
Y12492D1*
X25644Y12592D1*
X25663Y12690D1*
X25690Y12786D1*
X25727Y12879D1*
X25773Y12968D1*
X25827Y13052D1*
X25888Y13131D1*
X25957Y13203D1*
X26032Y13269D1*
X26114Y13327D1*
X26200Y13378D1*
X26291Y13420D1*
X26385Y13453D1*
X26482Y13477D1*
X26581Y13491D1*
X26681Y13496D1*
X26781Y13492D1*
X26880Y13478D1*
X26977Y13455D1*
X27072Y13423D1*
X27163Y13382D1*
X27249Y13332D1*
X27331Y13274D1*
X27407Y13209D1*
X27476Y13137D1*
X27538Y13059D1*
X27593Y12975D1*
X27640Y12885D1*
Y12922D1*
X27614Y13123D1*
X27545Y13290D1*
X27435Y13434D1*
X27291Y13545D1*
X27122Y13614D1*
X26920Y13640D1*
X25516D1*
X13230Y11130D2*
X13221Y11031D1*
X13202Y10932D1*
X13173Y10837D1*
X13136Y10744D1*
X13108Y10689D1*
X13183Y10617D1*
X13328Y10472D1*
X13353Y10530D1*
X13379Y10572D1*
X13409Y10612D1*
X13444Y10648D1*
X13482Y10680D1*
X13524Y10707D1*
X13569Y10730D1*
X13615Y10748D1*
X13664Y10760D1*
X13713Y10767D1*
X13763Y10769D1*
X13813Y10765D1*
X13862Y10756D1*
X13910Y10741D1*
X13956Y10721D1*
X13999Y10696D1*
X14039Y10667D1*
X14076Y10633D1*
X14125Y10574D1*
X14245Y10575D1*
Y10692D1*
X14950Y10690D1*
X14957Y10692D1*
X15321D1*
X15106Y10907D1*
Y10776D1*
X14601D1*
Y11412D1*
X14377Y11636D1*
X13940D1*
X13890Y11640D1*
X13842Y11652D1*
X13796Y11672D1*
X13767Y11690D1*
X13725Y11725D1*
X13565Y11885D1*
X12954Y11886D1*
X13009Y11823D1*
X13067Y11742D1*
X13117Y11655D1*
X13158Y11564D1*
X13190Y11469D1*
X13214Y11372D1*
X13227Y11273D1*
X13231Y11180D1*
X13230Y11130D1*
X17746Y6424D2*
X17636Y6423D1*
X18400Y5660D1*
X18432Y5622D1*
X18458Y5579D1*
X18476Y5533D1*
X18484Y5500D1*
X18489Y5445D1*
Y5178D1*
X18901Y5591D1*
X18848Y5641D1*
X18818Y5680D1*
X18791Y5723D1*
X18770Y5768D1*
X18753Y5815D1*
X18742Y5864D1*
X18737Y5914D1*
X18738Y5978D1*
X18713Y6038D1*
X18705Y6071D1*
X18700Y6126D1*
Y6377D1*
X18258Y6819D1*
Y6423D1*
X17638D1*
X19074Y9394D2*
X19125Y9390D1*
X19174Y9381D1*
X19222Y9366D1*
X19268Y9346D1*
X19311Y9321D1*
X19352Y9292D1*
X19402Y9243D1*
X19765Y9244D1*
X23063D1*
X23387Y9567D1*
X23386Y9940D1*
Y10813D1*
X23333Y10855D1*
X23298Y10891D1*
X23268Y10930D1*
X23241Y10973D1*
X23220Y11018D1*
X23203Y11065D1*
X23192Y11114D1*
X23187Y11164D1*
Y11214D1*
X23192Y11262D1*
X21905Y9975D1*
X21867Y9943D1*
X21824Y9917D1*
X21778Y9899D1*
X21745Y9891D1*
X21690Y9886D1*
X19567D1*
X19073Y9393D1*
X24190Y12690D2*
D14*
Y12180D1*
X23641Y12690D2*
X24190D1*
X26690Y10670D2*
Y10121D1*
X27239D1*
X20185Y4994D2*
Y4445D1*
X20734D1*
X20359Y8440D2*
X20830D1*
X15109Y10692D2*
Y9850D1*
Y10271D2*
X15462D1*
X16690Y5940D2*
Y5637D1*
X16318Y5940D2*
X16690D1*
X16318Y7121D2*
X16690D1*
X17190Y12861D2*
Y12440D1*
X17513D1*
X17574Y12379D2*
Y12056D1*
X17995D1*
X15191Y9067D2*
X15662D1*
X17827Y6815D2*
Y6423D1*
Y6815D2*
X18258D1*
X17924Y13440D2*
Y13048D1*
X17493Y13440D2*
X17924D1*
X24731Y11850D2*
Y10949D1*
X24260Y11400D2*
X24731D1*
D16*
X24190Y12690D3*
Y13438D3*
D17*
X26690Y7759D3*
D18*
Y8546D3*
Y9334D3*
Y10121D3*
D17*
X20185Y4445D3*
D18*
X19185D3*
X18185D3*
X17185D3*
X16185D3*
X15185D3*
X14185D3*
X13185D3*
X12185D3*
X11185D3*
X10185D3*
X9185D3*
D17*
X14255Y13445D3*
D18*
X13255D3*
X12255D3*
X11255D3*
X10255D3*
X9255D3*
D19*
X22690Y12949D3*
Y12280D3*
D20*
X19690Y8440D3*
X20359D3*
D19*
X21940Y12945D3*
Y12275D3*
X14440Y9609D3*
Y8940D3*
X21190Y12945D3*
Y12275D3*
D20*
X19695Y6940D3*
X20364D3*
X19695Y7690D3*
X20364D3*
D19*
X20190Y12945D3*
Y12275D3*
X19440Y12280D3*
Y12949D3*
X25065Y13440D3*
Y12771D3*
D21*
X12190Y6440D3*
X6470Y8810D3*
X12190Y11180D3*
D22*
X12820Y8810D3*
D21*
X9820Y6160D3*
Y11460D3*
D18*
X8180Y4450D3*
D24*
X14597Y10271D3*
X15109D3*
X14853Y11097D3*
D25*
X16690Y5940D3*
Y6137D3*
Y6334D3*
Y6531D3*
Y6727D3*
Y6924D3*
Y7121D3*
X15194D3*
Y6924D3*
Y6727D3*
Y6531D3*
Y6334D3*
Y6137D3*
Y5940D3*
D26*
X18129Y8253D3*
X17932D3*
X17735D3*
X17538D3*
D27*
X17499Y8025D3*
D26*
X17538Y7796D3*
X17735D3*
X17932D3*
X18129D3*
D27*
X18168Y8025D3*
D29*
X17190Y12440D3*
X16934D3*
X16678D3*
X16422D3*
D30*
X16038Y12056D3*
Y11800D3*
Y11544D3*
Y11288D3*
D29*
X16422Y10905D3*
X16678D3*
X16934D3*
X17190D3*
D30*
X17574Y11288D3*
Y11544D3*
Y11800D3*
Y12056D3*
D31*
X16806Y11672D3*
D32*
X15191Y9441D3*
Y9067D3*
Y8693D3*
X16254D3*
Y9441D3*
D33*
X17315Y6815D3*
X17827D3*
X18436Y13440D3*
X17924D3*
D20*
X25400Y11400D3*
X24731D3*
M02*
