G04 DipTrace 2.4.0.2*
%INTopMask.gbr*%
%MOIN*%
%ADD36C,0.1*%
%ADD41R,0.0434X0.0356*%
%ADD43R,0.0513X0.0316*%
%ADD45R,0.1025X0.1025*%
%ADD47O,0.0415X0.0218*%
%ADD49O,0.0218X0.0415*%
%ADD51R,0.0277X0.0206*%
%ADD53R,0.0206X0.0277*%
%ADD55R,0.0316X0.0178*%
%ADD57R,0.0277X0.0415*%
%ADD59C,0.188*%
%ADD61C,0.1655*%
%ADD63R,0.0513X0.0474*%
%ADD65R,0.0474X0.0513*%
%ADD67C,0.0671*%
%ADD69R,0.067X0.067*%
%ADD71R,0.0671X0.0592*%
%FSLAX44Y44*%
G04*
G70*
G90*
G75*
G01*
%LNTopMask*%
%LPD*%
D71*
X24190Y12690D3*
Y13438D3*
D69*
X26690Y7759D3*
D67*
Y8546D3*
Y9334D3*
Y10121D3*
D69*
X20185Y4445D3*
D67*
X19185D3*
X18185D3*
X17185D3*
X16185D3*
X15185D3*
X14185D3*
X13185D3*
X12185D3*
X11185D3*
X10185D3*
X9185D3*
D69*
X14255Y13445D3*
D67*
X13255D3*
X12255D3*
X11255D3*
X10255D3*
X9255D3*
D65*
X22690Y12949D3*
Y12280D3*
D63*
X19690Y8440D3*
X20359D3*
D65*
X21940Y12945D3*
Y12275D3*
X14440Y9609D3*
Y8940D3*
X21190Y12945D3*
Y12275D3*
D63*
X19695Y6940D3*
X20364D3*
X19695Y7690D3*
X20364D3*
D65*
X20190Y12945D3*
Y12275D3*
X19440Y12280D3*
Y12949D3*
X25065Y13440D3*
Y12771D3*
D61*
X12190Y6440D3*
X6470Y8810D3*
X12190Y11180D3*
D59*
X12820Y8810D3*
D61*
X9820Y6160D3*
Y11460D3*
D67*
X8180Y4450D3*
D57*
X14597Y10271D3*
X15109D3*
X14853Y11097D3*
D55*
X16690Y5940D3*
Y6137D3*
Y6334D3*
Y6531D3*
Y6727D3*
Y6924D3*
Y7121D3*
X15194D3*
Y6924D3*
Y6727D3*
Y6531D3*
Y6334D3*
Y6137D3*
Y5940D3*
D53*
X18129Y8253D3*
X17932D3*
X17735D3*
X17538D3*
D51*
X17499Y8025D3*
D53*
X17538Y7796D3*
X17735D3*
X17932D3*
X18129D3*
D51*
X18168Y8025D3*
D49*
X17190Y12440D3*
X16934D3*
X16678D3*
X16422D3*
D47*
X16038Y12056D3*
Y11800D3*
Y11544D3*
Y11288D3*
D49*
X16422Y10905D3*
X16678D3*
X16934D3*
X17190D3*
D47*
X17574Y11288D3*
Y11544D3*
Y11800D3*
Y12056D3*
D45*
X16806Y11672D3*
D43*
X15191Y9441D3*
Y9067D3*
Y8693D3*
X16254D3*
Y9441D3*
D41*
X17315Y6815D3*
X17827D3*
X18436Y13440D3*
X17924D3*
D63*
X25400Y11400D3*
X24731D3*
D36*
X26685Y12445D3*
Y5445D3*
X5190Y12440D3*
Y5440D3*
M02*
