G04 DipTrace 2.4.0.2*
%INTopPaste.gbr*%
%MOIN*%
%ADD42R,0.0274X0.0196*%
%ADD44R,0.0353X0.0156*%
%ADD46R,0.0865X0.0865*%
%ADD48O,0.0255X0.0058*%
%ADD50O,0.0058X0.0255*%
%ADD52R,0.0117X0.0046*%
%ADD54R,0.0046X0.0117*%
%ADD56R,0.0156X0.0018*%
%ADD58R,0.0117X0.0255*%
%ADD60C,0.172*%
%ADD62C,0.1495*%
%ADD64R,0.0353X0.0314*%
%ADD66R,0.0314X0.0353*%
%ADD72R,0.0511X0.0432*%
%FSLAX44Y44*%
G04*
G70*
G90*
G75*
G01*
%LNTopPaste*%
%LPD*%
D72*
X24190Y12690D3*
Y13438D3*
D66*
X22690Y12949D3*
Y12280D3*
D64*
X19690Y8440D3*
X20359D3*
D66*
X21940Y12945D3*
Y12275D3*
X14440Y9609D3*
Y8940D3*
X21190Y12945D3*
Y12275D3*
D64*
X19695Y6940D3*
X20364D3*
X19695Y7690D3*
X20364D3*
D66*
X20190Y12945D3*
Y12275D3*
X19440Y12280D3*
Y12949D3*
X25065Y13440D3*
Y12771D3*
D62*
X12190Y6440D3*
X6470Y8810D3*
X12190Y11180D3*
D60*
X12820Y8810D3*
D62*
X9820Y6160D3*
Y11460D3*
D58*
X14597Y10271D3*
X15109D3*
X14853Y11097D3*
D56*
X16690Y5940D3*
Y6137D3*
Y6334D3*
Y6531D3*
Y6727D3*
Y6924D3*
Y7121D3*
X15194D3*
Y6924D3*
Y6727D3*
Y6531D3*
Y6334D3*
Y6137D3*
Y5940D3*
D54*
X18129Y8253D3*
X17932D3*
X17735D3*
X17538D3*
D52*
X17499Y8025D3*
D54*
X17538Y7796D3*
X17735D3*
X17932D3*
X18129D3*
D52*
X18168Y8025D3*
D50*
X17190Y12440D3*
X16934D3*
X16678D3*
X16422D3*
D48*
X16038Y12056D3*
Y11800D3*
Y11544D3*
Y11288D3*
D50*
X16422Y10905D3*
X16678D3*
X16934D3*
X17190D3*
D48*
X17574Y11288D3*
Y11544D3*
Y11800D3*
Y12056D3*
D46*
X16806Y11672D3*
D44*
X15191Y9441D3*
Y9067D3*
Y8693D3*
X16254D3*
Y9441D3*
D42*
X17315Y6815D3*
X17827D3*
X18436Y13440D3*
X17924D3*
D64*
X25400Y11400D3*
X24731D3*
M02*
