G04 DipTrace 2.4.0.2*
%INTopSilk.gbr*%
%MOIN*%
%ADD10C,0.0098*%
%ADD12C,0.003*%
%ADD14C,0.008*%
%ADD15C,0.005*%
%ADD23C,0.0154*%
%ADD28C,0.0157*%
%ADD73C,0.0046*%
%ADD74C,0.0062*%
%FSLAX44Y44*%
G04*
G70*
G90*
G75*
G01*
%LNTopSilk*%
%LPD*%
X24446Y12316D2*
D10*
X23934D1*
X25607Y6972D2*
X27773D1*
Y10909D1*
X25607D1*
Y6972D1*
D23*
X14328Y10242D3*
X14460Y10586D2*
D10*
X15247D1*
Y10782D1*
X14460D1*
Y10586D1*
X15430Y5940D2*
X16454D1*
Y7121D1*
X15430D1*
Y5940D1*
X17361Y7867D2*
Y7710D1*
Y8182D2*
Y8340D1*
X18306Y7867D2*
Y7710D1*
Y8340D2*
Y8182D1*
D14*
X18141Y8480D3*
X16216Y12460D2*
D10*
X16019D1*
Y12263D1*
X17594Y10885D2*
Y11082D1*
Y10885D2*
X17397D1*
X16019Y11082D2*
Y10885D1*
X16216D1*
X17397Y12499D2*
X17633Y12263D1*
D28*
X17180Y12851D3*
D23*
X15025Y9710D3*
X15566Y9657D2*
D10*
Y8476D1*
X15880Y9657D2*
Y8476D1*
X15566D2*
X15880D1*
X15566Y9657D2*
X15880D1*
X16980Y6717D2*
Y6913D1*
X18771Y13538D2*
Y13342D1*
X25773Y11557D2*
Y11242D1*
X18940Y13695D2*
D15*
X23190D1*
Y11695D1*
X18940D1*
Y13695D1*
X20690D2*
Y12445D1*
X23455Y12822D2*
D73*
X23757D1*
Y12923D1*
X23742Y12966D1*
X23714Y12995D1*
X23685Y13009D1*
X23642Y13023D1*
X23570D1*
X23527Y13009D1*
X23498Y12995D1*
X23470Y12966D1*
X23455Y12923D1*
Y12822D1*
X23513Y13116D2*
X23498Y13145D1*
X23456Y13188D1*
X23757D1*
X25168Y8757D2*
X25469D1*
X25168Y8958D2*
X25469D1*
X25312Y8757D2*
Y8958D1*
X25226Y9051D2*
X25211Y9080D1*
X25168Y9123D1*
X25469D1*
X22507Y13462D2*
X22636D1*
X22679Y13476D1*
X22694Y13490D1*
X22708Y13519D1*
Y13548D1*
X22694Y13576D1*
X22679Y13591D1*
X22636Y13605D1*
X22507D1*
Y13304D1*
X22608Y13462D2*
X22708Y13304D1*
X22801Y13547D2*
X22830Y13562D1*
X22873Y13605D1*
Y13304D1*
X20821Y8193D2*
Y8322D1*
X20807Y8365D1*
X20792Y8379D1*
X20764Y8394D1*
X20735D1*
X20706Y8379D1*
X20692Y8365D1*
X20678Y8322D1*
Y8193D1*
X20979D1*
X20821Y8293D2*
X20979Y8394D1*
X20750Y8501D2*
X20735D1*
X20706Y8515D1*
X20692Y8529D1*
X20678Y8558D1*
Y8616D1*
X20692Y8644D1*
X20706Y8658D1*
X20735Y8673D1*
X20764D1*
X20793Y8658D1*
X20835Y8630D1*
X20979Y8486D1*
Y8687D1*
X21693Y13457D2*
X21822D1*
X21865Y13472D1*
X21879Y13486D1*
X21894Y13514D1*
Y13543D1*
X21879Y13572D1*
X21865Y13586D1*
X21822Y13601D1*
X21693D1*
Y13299D1*
X21793Y13457D2*
X21894Y13299D1*
X22015Y13600D2*
X22173D1*
X22087Y13485D1*
X22130D1*
X22158Y13471D1*
X22173Y13457D1*
X22187Y13414D1*
Y13385D1*
X22173Y13342D1*
X22144Y13313D1*
X22101Y13299D1*
X22058D1*
X22015Y13313D1*
X22001Y13328D1*
X21986Y13356D1*
X13947Y9020D2*
Y9149D1*
X13933Y9192D1*
X13919Y9207D1*
X13890Y9221D1*
X13861D1*
X13833Y9207D1*
X13818Y9192D1*
X13804Y9149D1*
Y9020D1*
X14105D1*
X13947Y9121D2*
X14105Y9221D1*
Y9457D2*
X13804D1*
X14005Y9314D1*
Y9529D1*
X20943Y13457D2*
X21072D1*
X21115Y13472D1*
X21129Y13486D1*
X21144Y13514D1*
Y13543D1*
X21129Y13572D1*
X21115Y13586D1*
X21072Y13601D1*
X20943D1*
Y13299D1*
X21043Y13457D2*
X21144Y13299D1*
X21408Y13600D2*
X21265D1*
X21251Y13471D1*
X21265Y13485D1*
X21308Y13500D1*
X21351D1*
X21394Y13485D1*
X21423Y13457D1*
X21437Y13414D1*
Y13385D1*
X21423Y13342D1*
X21394Y13313D1*
X21351Y13299D1*
X21308D1*
X21265Y13313D1*
X21251Y13328D1*
X21236Y13356D1*
X20826Y6700D2*
Y6829D1*
X20811Y6872D1*
X20797Y6887D1*
X20768Y6901D1*
X20740D1*
X20711Y6887D1*
X20696Y6872D1*
X20682Y6829D1*
Y6700D1*
X20984D1*
X20826Y6801D2*
X20984Y6901D1*
X20725Y7166D2*
X20697Y7151D1*
X20683Y7108D1*
Y7080D1*
X20697Y7037D1*
X20740Y7008D1*
X20812Y6994D1*
X20883D1*
X20941Y7008D1*
X20969Y7037D1*
X20984Y7080D1*
Y7094D1*
X20969Y7137D1*
X20941Y7166D1*
X20897Y7180D1*
X20883D1*
X20840Y7166D1*
X20812Y7137D1*
X20797Y7094D1*
Y7080D1*
X20812Y7037D1*
X20840Y7008D1*
X20883Y6994D1*
X20826Y7443D2*
Y7572D1*
X20811Y7615D1*
X20797Y7629D1*
X20768Y7644D1*
X20740D1*
X20711Y7629D1*
X20696Y7615D1*
X20682Y7572D1*
Y7443D1*
X20984D1*
X20826Y7543D2*
X20984Y7644D1*
Y7794D2*
X20683Y7937D1*
Y7736D1*
X19943Y13457D2*
X20072D1*
X20115Y13472D1*
X20130Y13486D1*
X20144Y13514D1*
Y13543D1*
X20130Y13572D1*
X20115Y13586D1*
X20072Y13601D1*
X19943D1*
Y13299D1*
X20043Y13457D2*
X20144Y13299D1*
X20308Y13600D2*
X20265Y13586D1*
X20251Y13557D1*
Y13529D1*
X20265Y13500D1*
X20294Y13485D1*
X20351Y13471D1*
X20394Y13457D1*
X20423Y13428D1*
X20437Y13400D1*
Y13356D1*
X20423Y13328D1*
X20409Y13313D1*
X20365Y13299D1*
X20308D1*
X20265Y13313D1*
X20251Y13328D1*
X20236Y13356D1*
Y13400D1*
X20251Y13428D1*
X20280Y13457D1*
X20322Y13471D1*
X20380Y13485D1*
X20409Y13500D1*
X20423Y13529D1*
Y13557D1*
X20409Y13586D1*
X20365Y13600D1*
X20308D1*
X19200Y13462D2*
X19329D1*
X19372Y13476D1*
X19387Y13490D1*
X19401Y13519D1*
Y13548D1*
X19387Y13576D1*
X19372Y13591D1*
X19329Y13605D1*
X19200D1*
Y13304D1*
X19300Y13462D2*
X19401Y13304D1*
X19680Y13505D2*
X19666Y13462D1*
X19637Y13433D1*
X19594Y13418D1*
X19580D1*
X19537Y13433D1*
X19508Y13462D1*
X19493Y13505D1*
Y13519D1*
X19508Y13562D1*
X19537Y13591D1*
X19580Y13605D1*
X19594D1*
X19637Y13591D1*
X19666Y13562D1*
X19680Y13505D1*
Y13433D1*
X19666Y13361D1*
X19637Y13318D1*
X19594Y13304D1*
X19565D1*
X19522Y13318D1*
X19508Y13347D1*
X25507Y12776D2*
Y12905D1*
X25493Y12948D1*
X25478Y12962D1*
X25450Y12977D1*
X25421D1*
X25392Y12962D1*
X25378Y12948D1*
X25364Y12905D1*
Y12776D1*
X25665D1*
X25507Y12876D2*
X25665Y12977D1*
X25421Y13069D2*
X25407Y13098D1*
X25364Y13141D1*
X25665D1*
X25364Y13320D2*
X25378Y13277D1*
X25421Y13248D1*
X25493Y13234D1*
X25536D1*
X25608Y13248D1*
X25651Y13277D1*
X25665Y13320D1*
Y13349D1*
X25651Y13392D1*
X25608Y13420D1*
X25536Y13435D1*
X25493D1*
X25421Y13420D1*
X25378Y13392D1*
X25364Y13349D1*
Y13320D1*
X25421Y13420D2*
X25608Y13248D1*
X13812Y10501D2*
X14027D1*
X14070Y10516D1*
X14099Y10544D1*
X14113Y10588D1*
Y10616D1*
X14099Y10659D1*
X14070Y10688D1*
X14027Y10702D1*
X13812D1*
X13870Y10795D2*
X13855Y10824D1*
X13812Y10867D1*
X14113D1*
X15695Y7610D2*
Y7394D1*
X15709Y7351D1*
X15738Y7323D1*
X15781Y7308D1*
X15809D1*
X15853Y7323D1*
X15881Y7351D1*
X15896Y7394D1*
Y7610D1*
X16003Y7538D2*
Y7552D1*
X16017Y7581D1*
X16031Y7595D1*
X16060Y7609D1*
X16118D1*
X16146Y7595D1*
X16160Y7581D1*
X16175Y7552D1*
Y7523D1*
X16160Y7495D1*
X16132Y7452D1*
X15988Y7308D1*
X16189D1*
X17586Y8959D2*
Y8743D1*
X17601Y8700D1*
X17630Y8672D1*
X17673Y8657D1*
X17701D1*
X17744Y8672D1*
X17773Y8700D1*
X17787Y8743D1*
Y8959D1*
X17909Y8958D2*
X18066D1*
X17981Y8843D1*
X18024D1*
X18052Y8829D1*
X18066Y8815D1*
X18081Y8772D1*
Y8743D1*
X18066Y8700D1*
X18038Y8671D1*
X17995Y8657D1*
X17952D1*
X17909Y8671D1*
X17895Y8686D1*
X17880Y8714D1*
X17843Y11579D2*
X18058D1*
X18101Y11593D1*
X18130Y11622D1*
X18144Y11665D1*
Y11694D1*
X18130Y11737D1*
X18101Y11766D1*
X18058Y11780D1*
X17843D1*
X18144Y12016D2*
X17843D1*
X18044Y11873D1*
Y12088D1*
X15462Y10226D2*
Y10011D1*
X15476Y9968D1*
X15505Y9939D1*
X15548Y9925D1*
X15577D1*
X15620Y9939D1*
X15649Y9968D1*
X15663Y10011D1*
Y10226D1*
X15928D2*
X15784D1*
X15770Y10097D1*
X15784Y10111D1*
X15828Y10126D1*
X15870D1*
X15913Y10111D1*
X15942Y10082D1*
X15957Y10039D1*
Y10011D1*
X15942Y9968D1*
X15913Y9939D1*
X15870Y9925D1*
X15828D1*
X15784Y9939D1*
X15770Y9953D1*
X15756Y9982D1*
X18177Y6776D2*
X18149Y6762D1*
X18120Y6733D1*
X18106Y6704D1*
Y6647D1*
X18120Y6618D1*
X18149Y6589D1*
X18177Y6575D1*
X18220Y6561D1*
X18292D1*
X18335Y6575D1*
X18364Y6589D1*
X18393Y6618D1*
X18407Y6647D1*
Y6704D1*
X18393Y6733D1*
X18364Y6762D1*
X18335Y6776D1*
X18178Y6883D2*
X18163D1*
X18135Y6897D1*
X18120Y6912D1*
X18106Y6940D1*
Y6998D1*
X18120Y7026D1*
X18135Y7041D1*
X18163Y7055D1*
X18192D1*
X18221Y7041D1*
X18264Y7012D1*
X18407Y6868D1*
Y7069D1*
X17379Y13401D2*
X17351Y13387D1*
X17322Y13358D1*
X17308Y13329D1*
Y13272D1*
X17322Y13243D1*
X17351Y13214D1*
X17379Y13200D1*
X17422Y13186D1*
X17494D1*
X17537Y13200D1*
X17566Y13214D1*
X17594Y13243D1*
X17609Y13272D1*
Y13329D1*
X17594Y13358D1*
X17566Y13387D1*
X17537Y13401D1*
X17308Y13522D2*
Y13680D1*
X17423Y13594D1*
Y13637D1*
X17437Y13666D1*
X17451Y13680D1*
X17494Y13694D1*
X17523D1*
X17566Y13680D1*
X17595Y13651D1*
X17609Y13608D1*
Y13565D1*
X17595Y13522D1*
X17580Y13508D1*
X17552Y13493D1*
X25169Y11964D2*
X25155Y11993D1*
X25126Y12022D1*
X25097Y12036D1*
X25040D1*
X25011Y12022D1*
X24983Y11993D1*
X24968Y11964D1*
X24954Y11921D1*
Y11849D1*
X24968Y11807D1*
X24983Y11778D1*
X25011Y11749D1*
X25040Y11735D1*
X25097D1*
X25126Y11749D1*
X25155Y11778D1*
X25169Y11807D1*
X25262Y11978D2*
X25290Y11993D1*
X25334Y12036D1*
Y11735D1*
X21088Y6025D2*
X20901D1*
Y5724D1*
X21088D1*
X20901Y5881D2*
X21016D1*
X21396Y5953D2*
X21381Y5982D1*
X21352Y6011D1*
X21324Y6025D1*
X21267D1*
X21238Y6011D1*
X21209Y5982D1*
X21195Y5953D1*
X21180Y5910D1*
Y5838D1*
X21195Y5796D1*
X21209Y5767D1*
X21238Y5738D1*
X21267Y5724D1*
X21324D1*
X21352Y5738D1*
X21381Y5767D1*
X21396Y5796D1*
X21981Y5982D2*
X21952Y6011D1*
X21909Y6025D1*
X21852D1*
X21809Y6011D1*
X21780Y5982D1*
Y5953D1*
X21794Y5925D1*
X21809Y5910D1*
X21837Y5896D1*
X21923Y5867D1*
X21952Y5853D1*
X21967Y5838D1*
X21981Y5810D1*
Y5767D1*
X21952Y5738D1*
X21909Y5724D1*
X21852D1*
X21809Y5738D1*
X21780Y5767D1*
X22073Y5838D2*
X22246D1*
Y5867D1*
X22231Y5896D1*
X22217Y5910D1*
X22188Y5925D1*
X22145D1*
X22117Y5910D1*
X22088Y5881D1*
X22073Y5838D1*
Y5810D1*
X22088Y5767D1*
X22117Y5738D1*
X22145Y5724D1*
X22188D1*
X22217Y5738D1*
X22246Y5767D1*
X22338Y5925D2*
Y5724D1*
Y5867D2*
X22381Y5910D1*
X22410Y5925D1*
X22453D1*
X22482Y5910D1*
X22496Y5867D1*
Y5724D1*
X22747Y5881D2*
X22732Y5910D1*
X22689Y5925D1*
X22646D1*
X22603Y5910D1*
X22589Y5881D1*
X22603Y5853D1*
X22632Y5838D1*
X22703Y5824D1*
X22732Y5810D1*
X22747Y5781D1*
Y5767D1*
X22732Y5738D1*
X22689Y5724D1*
X22646D1*
X22603Y5738D1*
X22589Y5767D1*
X22911Y5925D2*
X22882Y5910D1*
X22853Y5881D1*
X22839Y5838D1*
Y5810D1*
X22853Y5767D1*
X22882Y5738D1*
X22911Y5724D1*
X22954D1*
X22983Y5738D1*
X23011Y5767D1*
X23026Y5810D1*
Y5838D1*
X23011Y5881D1*
X22983Y5910D1*
X22954Y5925D1*
X22911D1*
X23118D2*
Y5724D1*
Y5838D2*
X23133Y5881D1*
X23162Y5910D1*
X23190Y5925D1*
X23234D1*
X23618Y6025D2*
Y5724D1*
X23747D1*
X23790Y5738D1*
X23804Y5752D1*
X23819Y5781D1*
Y5824D1*
X23804Y5853D1*
X23790Y5867D1*
X23747Y5881D1*
X23790Y5896D1*
X23804Y5910D1*
X23819Y5939D1*
Y5968D1*
X23804Y5996D1*
X23790Y6011D1*
X23747Y6025D1*
X23618D1*
Y5881D2*
X23747D1*
X23911Y5925D2*
Y5724D1*
Y5838D2*
X23926Y5881D1*
X23954Y5910D1*
X23983Y5925D1*
X24026D1*
X24119Y5838D2*
X24291D1*
Y5867D1*
X24277Y5896D1*
X24263Y5910D1*
X24234Y5925D1*
X24191D1*
X24162Y5910D1*
X24133Y5881D1*
X24119Y5838D1*
Y5810D1*
X24133Y5767D1*
X24162Y5738D1*
X24191Y5724D1*
X24234D1*
X24263Y5738D1*
X24291Y5767D1*
X24556Y5925D2*
Y5724D1*
Y5881D2*
X24527Y5910D1*
X24499Y5925D1*
X24456D1*
X24427Y5910D1*
X24398Y5881D1*
X24384Y5838D1*
Y5810D1*
X24398Y5767D1*
X24427Y5738D1*
X24456Y5724D1*
X24499D1*
X24527Y5738D1*
X24556Y5767D1*
X24649Y6025D2*
Y5724D1*
X24792Y5925D2*
X24649Y5781D1*
X24706Y5838D2*
X24806Y5724D1*
X24971Y5925D2*
X24942Y5910D1*
X24913Y5881D1*
X24899Y5838D1*
Y5810D1*
X24913Y5767D1*
X24942Y5738D1*
X24971Y5724D1*
X25014D1*
X25043Y5738D1*
X25071Y5767D1*
X25086Y5810D1*
Y5838D1*
X25071Y5881D1*
X25043Y5910D1*
X25014Y5925D1*
X24971D1*
X25178D2*
Y5781D1*
X25193Y5738D1*
X25222Y5724D1*
X25265D1*
X25293Y5738D1*
X25336Y5781D1*
Y5925D2*
Y5724D1*
X25472Y6025D2*
Y5781D1*
X25486Y5738D1*
X25515Y5724D1*
X25544D1*
X25429Y5925D2*
X25529D1*
X20901Y4925D2*
X20959Y4724D1*
X21016Y4925D1*
X21073Y4724D1*
X21131Y4925D1*
X21223D2*
X21281Y4724D1*
X21338Y4925D1*
X21396Y4724D1*
X21453Y4925D1*
X21546D2*
X21603Y4724D1*
X21660Y4925D1*
X21718Y4724D1*
X21775Y4925D1*
X21882Y4752D2*
X21868Y4738D1*
X21882Y4724D1*
X21897Y4738D1*
X21882Y4752D1*
X21989Y5025D2*
Y4724D1*
Y4867D2*
X22032Y4910D1*
X22061Y4925D1*
X22104D1*
X22133Y4910D1*
X22147Y4867D1*
Y4724D1*
X22240Y4838D2*
X22412D1*
Y4867D1*
X22398Y4896D1*
X22383Y4910D1*
X22354Y4925D1*
X22311D1*
X22283Y4910D1*
X22254Y4881D1*
X22240Y4838D1*
Y4810D1*
X22254Y4767D1*
X22283Y4738D1*
X22311Y4724D1*
X22354D1*
X22383Y4738D1*
X22412Y4767D1*
X22677Y5025D2*
Y4724D1*
Y4881D2*
X22648Y4910D1*
X22619Y4925D1*
X22576D1*
X22548Y4910D1*
X22519Y4881D1*
X22504Y4838D1*
Y4810D1*
X22519Y4767D1*
X22548Y4738D1*
X22576Y4724D1*
X22619D1*
X22648Y4738D1*
X22677Y4767D1*
X22769Y5025D2*
Y4724D1*
X23034Y4925D2*
Y4724D1*
Y4881D2*
X23005Y4910D1*
X22977Y4925D1*
X22934D1*
X22905Y4910D1*
X22876Y4881D1*
X22862Y4838D1*
Y4810D1*
X22876Y4767D1*
X22905Y4738D1*
X22934Y4724D1*
X22977D1*
X23005Y4738D1*
X23034Y4767D1*
X23127Y5025D2*
Y4724D1*
Y4881D2*
X23155Y4910D1*
X23184Y4925D1*
X23227D1*
X23256Y4910D1*
X23284Y4881D1*
X23299Y4838D1*
Y4810D1*
X23284Y4767D1*
X23256Y4738D1*
X23227Y4724D1*
X23184D1*
X23155Y4738D1*
X23127Y4767D1*
X23549Y4881D2*
X23535Y4910D1*
X23492Y4925D1*
X23449D1*
X23406Y4910D1*
X23391Y4881D1*
X23406Y4853D1*
X23434Y4838D1*
X23506Y4824D1*
X23535Y4810D1*
X23549Y4781D1*
Y4767D1*
X23535Y4738D1*
X23492Y4724D1*
X23449D1*
X23406Y4738D1*
X23391Y4767D1*
X23656Y4752D2*
X23642Y4738D1*
X23656Y4724D1*
X23671Y4738D1*
X23656Y4752D1*
X23936Y4881D2*
X23907Y4910D1*
X23878Y4925D1*
X23835D1*
X23806Y4910D1*
X23778Y4881D1*
X23763Y4838D1*
Y4810D1*
X23778Y4767D1*
X23806Y4738D1*
X23835Y4724D1*
X23878D1*
X23907Y4738D1*
X23936Y4767D1*
X24100Y4925D2*
X24071Y4910D1*
X24043Y4881D1*
X24028Y4838D1*
Y4810D1*
X24043Y4767D1*
X24071Y4738D1*
X24100Y4724D1*
X24143D1*
X24172Y4738D1*
X24200Y4767D1*
X24215Y4810D1*
Y4838D1*
X24200Y4881D1*
X24172Y4910D1*
X24143Y4925D1*
X24100D1*
X24308D2*
Y4724D1*
Y4867D2*
X24351Y4910D1*
X24380Y4925D1*
X24422D1*
X24451Y4910D1*
X24466Y4867D1*
Y4724D1*
Y4867D2*
X24509Y4910D1*
X24537Y4925D1*
X24580D1*
X24609Y4910D1*
X24624Y4867D1*
Y4724D1*
X20032Y5016D2*
D12*
X20023Y5035D1*
X20003Y5054D1*
X19984Y5064D1*
X19946D1*
X19927Y5054D1*
X19908Y5035D1*
X19898Y5016D1*
X19889Y4987D1*
Y4939D1*
X19898Y4911D1*
X19908Y4892D1*
X19927Y4873D1*
X19946Y4863D1*
X19984D1*
X20003Y4873D1*
X20023Y4892D1*
X20032Y4911D1*
Y4939D1*
X19984D1*
X20228Y5064D2*
Y4863D1*
X20094Y5064D1*
Y4863D1*
X20290Y5064D2*
Y4863D1*
X20357D1*
X20385Y4873D1*
X20405Y4892D1*
X20414Y4911D1*
X20424Y4939D1*
Y4987D1*
X20414Y5016D1*
X20405Y5035D1*
X20385Y5054D1*
X20357Y5064D1*
X20290D1*
X18889D2*
X18965Y4863D1*
X19042Y5064D1*
X19103D2*
Y4863D1*
X19170D1*
X19199Y4873D1*
X19218Y4892D1*
X19228Y4911D1*
X19237Y4939D1*
Y4987D1*
X19228Y5016D1*
X19218Y5035D1*
X19199Y5054D1*
X19170Y5064D1*
X19103D1*
X19299D2*
Y4863D1*
X19366D1*
X19395Y4873D1*
X19414Y4892D1*
X19424Y4911D1*
X19433Y4939D1*
Y4987D1*
X19424Y5016D1*
X19414Y5035D1*
X19395Y5054D1*
X19366Y5064D1*
X19299D1*
X11157Y5016D2*
X11148Y5035D1*
X11128Y5054D1*
X11109Y5064D1*
X11071D1*
X11052Y5054D1*
X11033Y5035D1*
X11023Y5016D1*
X11014Y4987D1*
Y4939D1*
X11023Y4911D1*
X11033Y4892D1*
X11052Y4873D1*
X11071Y4863D1*
X11109D1*
X11128Y4873D1*
X11148Y4892D1*
X11157Y4911D1*
X11219Y5025D2*
X11238Y5035D1*
X11267Y5064D1*
Y4863D1*
X19749Y11551D2*
Y11350D1*
X19821Y11503D2*
Y11512D1*
X19830Y11532D1*
X19840Y11541D1*
X19859Y11551D1*
X19897D1*
X19916Y11541D1*
X19926Y11532D1*
X19935Y11512D1*
Y11493D1*
X19926Y11474D1*
X19907Y11446D1*
X19811Y11350D1*
X19945D1*
X20150Y11503D2*
X20141Y11522D1*
X20121Y11541D1*
X20102Y11551D1*
X20064D1*
X20045Y11541D1*
X20026Y11522D1*
X20016Y11503D1*
X20007Y11474D1*
Y11426D1*
X20016Y11398D1*
X20026Y11379D1*
X20045Y11360D1*
X20064Y11350D1*
X20102D1*
X20121Y11360D1*
X20141Y11379D1*
X20150Y11398D1*
X20560Y11350D2*
X20483Y11551D1*
X20406Y11350D1*
X20435Y11417D2*
X20531D1*
X20621Y11551D2*
Y11350D1*
X20688D1*
X20717Y11360D1*
X20736Y11379D1*
X20746Y11398D1*
X20755Y11426D1*
Y11474D1*
X20746Y11503D1*
X20736Y11522D1*
X20717Y11541D1*
X20688Y11551D1*
X20621D1*
X20817D2*
Y11350D1*
X20884D1*
X20913Y11360D1*
X20932Y11379D1*
X20941Y11398D1*
X20951Y11426D1*
Y11474D1*
X20941Y11503D1*
X20932Y11522D1*
X20913Y11541D1*
X20884Y11551D1*
X20817D1*
X21013Y11455D2*
X21099D1*
X21127Y11465D1*
X21137Y11474D1*
X21147Y11493D1*
Y11513D1*
X21137Y11532D1*
X21127Y11541D1*
X21099Y11551D1*
X21013D1*
Y11350D1*
X21080Y11455D2*
X21147Y11350D1*
X21537Y11522D2*
X21518Y11541D1*
X21489Y11551D1*
X21451D1*
X21422Y11541D1*
X21403Y11522D1*
Y11503D1*
X21413Y11484D1*
X21422Y11474D1*
X21441Y11465D1*
X21499Y11446D1*
X21518Y11436D1*
X21527Y11426D1*
X21537Y11407D1*
Y11379D1*
X21518Y11360D1*
X21489Y11350D1*
X21451D1*
X21422Y11360D1*
X21403Y11379D1*
X21723Y11551D2*
X21599D1*
Y11350D1*
X21723D1*
X21599Y11455D2*
X21675D1*
X21785Y11551D2*
Y11350D1*
X21899D1*
X22085Y11551D2*
X21961D1*
Y11350D1*
X22085D1*
X21961Y11455D2*
X22038D1*
X22291Y11503D2*
X22281Y11522D1*
X22262Y11541D1*
X22243Y11551D1*
X22205D1*
X22185Y11541D1*
X22166Y11522D1*
X22157Y11503D1*
X22147Y11474D1*
Y11426D1*
X22157Y11398D1*
X22166Y11379D1*
X22185Y11360D1*
X22205Y11350D1*
X22243D1*
X22262Y11360D1*
X22281Y11379D1*
X22291Y11398D1*
X22419Y11551D2*
Y11350D1*
X22352Y11551D2*
X22486D1*
X10157Y5016D2*
X10148Y5035D1*
X10128Y5054D1*
X10109Y5064D1*
X10071D1*
X10052Y5054D1*
X10033Y5035D1*
X10023Y5016D1*
X10014Y4987D1*
Y4939D1*
X10023Y4911D1*
X10033Y4892D1*
X10052Y4873D1*
X10071Y4863D1*
X10109D1*
X10128Y4873D1*
X10148Y4892D1*
X10157Y4911D1*
X10229Y5016D2*
Y5025D1*
X10238Y5045D1*
X10248Y5054D1*
X10267Y5064D1*
X10305D1*
X10324Y5054D1*
X10334Y5045D1*
X10343Y5025D1*
Y5006D1*
X10334Y4987D1*
X10315Y4959D1*
X10219Y4863D1*
X10353D1*
X11889Y5064D2*
X11965Y4863D1*
X12042Y5064D1*
X12103Y4968D2*
X12189D1*
X12218Y4978D1*
X12228Y4987D1*
X12237Y5006D1*
Y5026D1*
X12228Y5045D1*
X12218Y5054D1*
X12189Y5064D1*
X12103D1*
Y4863D1*
X12170Y4968D2*
X12237Y4863D1*
X12423Y5064D2*
X12299D1*
Y4863D1*
X12423D1*
X12299Y4968D2*
X12376D1*
X12610Y5064D2*
X12485D1*
Y4863D1*
Y4968D2*
X12562D1*
X13014Y5064D2*
X13062Y4863D1*
X13109Y5064D1*
X13157Y4863D1*
X13205Y5064D1*
X13391D2*
X13267D1*
Y4863D1*
X13391D1*
X13267Y4968D2*
X13343D1*
X14014D2*
X14100D1*
X14128Y4978D1*
X14138Y4987D1*
X14148Y5006D1*
Y5026D1*
X14138Y5045D1*
X14128Y5054D1*
X14100Y5064D1*
X14014D1*
Y4863D1*
X14081Y4968D2*
X14148Y4863D1*
X14334Y5064D2*
X14209D1*
Y4863D1*
X14334D1*
X14209Y4968D2*
X14286D1*
X15157Y5016D2*
X15148Y5035D1*
X15128Y5054D1*
X15109Y5064D1*
X15071D1*
X15052Y5054D1*
X15033Y5035D1*
X15023Y5016D1*
X15014Y4987D1*
Y4939D1*
X15023Y4911D1*
X15033Y4892D1*
X15052Y4873D1*
X15071Y4863D1*
X15109D1*
X15128Y4873D1*
X15148Y4892D1*
X15157Y4911D1*
X15343Y5064D2*
X15219D1*
Y4863D1*
X15343D1*
X15219Y4968D2*
X15295D1*
X18023Y5035D2*
X18004Y5054D1*
X17975Y5064D1*
X17937D1*
X17908Y5054D1*
X17889Y5035D1*
Y5016D1*
X17898Y4997D1*
X17908Y4987D1*
X17927Y4978D1*
X17984Y4959D1*
X18004Y4949D1*
X18013Y4939D1*
X18023Y4920D1*
Y4892D1*
X18004Y4873D1*
X17975Y4863D1*
X17937D1*
X17908Y4873D1*
X17889Y4892D1*
X18084Y5064D2*
Y4863D1*
X18151D1*
X18180Y4873D1*
X18199Y4892D1*
X18209Y4911D1*
X18218Y4939D1*
Y4987D1*
X18209Y5016D1*
X18199Y5035D1*
X18180Y5054D1*
X18151Y5064D1*
X18084D1*
X18433Y4863D2*
X18357Y5064D1*
X18280Y4863D1*
X18309Y4930D2*
X18405D1*
X17085Y5035D2*
X17066Y5054D1*
X17037Y5064D1*
X16999D1*
X16970Y5054D1*
X16951Y5035D1*
Y5016D1*
X16961Y4997D1*
X16970Y4987D1*
X16989Y4978D1*
X17047Y4959D1*
X17066Y4949D1*
X17076Y4939D1*
X17085Y4920D1*
Y4892D1*
X17066Y4873D1*
X17037Y4863D1*
X16999D1*
X16970Y4873D1*
X16951Y4892D1*
X17290Y5016D2*
X17281Y5035D1*
X17262Y5054D1*
X17243Y5064D1*
X17204D1*
X17185Y5054D1*
X17166Y5035D1*
X17156Y5016D1*
X17147Y4987D1*
Y4939D1*
X17156Y4911D1*
X17166Y4892D1*
X17185Y4873D1*
X17204Y4863D1*
X17243D1*
X17262Y4873D1*
X17281Y4892D1*
X17290Y4911D1*
X17352Y5064D2*
Y4863D1*
X17467D1*
X15979D2*
Y5064D1*
X15903Y4863D1*
X15826Y5064D1*
Y4863D1*
X16165Y5064D2*
X16041D1*
Y4863D1*
X16165D1*
X16041Y4968D2*
X16117D1*
X16361Y5064D2*
Y4863D1*
X16227Y5064D1*
Y4863D1*
X16423Y5064D2*
Y4863D1*
X16509D1*
X16538Y4873D1*
X16547Y4882D1*
X16557Y4901D1*
Y4930D1*
X16547Y4949D1*
X16538Y4959D1*
X16509Y4968D1*
X16538Y4978D1*
X16547Y4987D1*
X16557Y5006D1*
Y5026D1*
X16547Y5045D1*
X16538Y5054D1*
X16509Y5064D1*
X16423D1*
Y4968D2*
X16509D1*
X8764Y5064D2*
X8840Y4863D1*
X8917Y5064D1*
X9036D2*
X9017Y5054D1*
X8998Y5035D1*
X8988Y5016D1*
X8978Y4987D1*
Y4939D1*
X8988Y4911D1*
X8998Y4892D1*
X9017Y4873D1*
X9036Y4863D1*
X9074D1*
X9093Y4873D1*
X9112Y4892D1*
X9122Y4911D1*
X9131Y4939D1*
Y4987D1*
X9122Y5016D1*
X9112Y5035D1*
X9093Y5054D1*
X9074Y5064D1*
X9036D1*
X9193D2*
Y4920D1*
X9203Y4892D1*
X9222Y4873D1*
X9251Y4863D1*
X9270D1*
X9298Y4873D1*
X9318Y4892D1*
X9327Y4920D1*
Y5064D1*
X9456D2*
Y4863D1*
X9389Y5064D2*
X9523D1*
X9081Y13059D2*
Y12858D1*
X9200Y13059D2*
X9181Y13049D1*
X9162Y13030D1*
X9152Y13011D1*
X9143Y12982D1*
Y12934D1*
X9152Y12906D1*
X9162Y12887D1*
X9181Y12868D1*
X9200Y12858D1*
X9239D1*
X9258Y12868D1*
X9277Y12887D1*
X9286Y12906D1*
X9296Y12934D1*
Y12982D1*
X9286Y13011D1*
X9277Y13030D1*
X9258Y13049D1*
X9239Y13059D1*
X9200D1*
X9396Y12858D2*
X9492Y13059D1*
X9358D1*
X10081D2*
Y12858D1*
X10200Y13059D2*
X10181Y13049D1*
X10162Y13030D1*
X10152Y13011D1*
X10143Y12982D1*
Y12934D1*
X10152Y12906D1*
X10162Y12887D1*
X10181Y12868D1*
X10200Y12858D1*
X10239D1*
X10258Y12868D1*
X10277Y12887D1*
X10286Y12906D1*
X10296Y12934D1*
Y12982D1*
X10286Y13011D1*
X10277Y13030D1*
X10258Y13049D1*
X10239Y13059D1*
X10200D1*
X10472Y13030D2*
X10463Y13049D1*
X10434Y13059D1*
X10415D1*
X10386Y13049D1*
X10367Y13020D1*
X10358Y12973D1*
Y12925D1*
X10367Y12887D1*
X10386Y12867D1*
X10415Y12858D1*
X10425D1*
X10453Y12867D1*
X10472Y12887D1*
X10482Y12915D1*
Y12925D1*
X10472Y12954D1*
X10453Y12973D1*
X10425Y12982D1*
X10415D1*
X10386Y12973D1*
X10367Y12954D1*
X10358Y12925D1*
X11081Y13059D2*
Y12858D1*
X11200Y13059D2*
X11181Y13049D1*
X11162Y13030D1*
X11152Y13011D1*
X11143Y12982D1*
Y12934D1*
X11152Y12906D1*
X11162Y12887D1*
X11181Y12868D1*
X11200Y12858D1*
X11239D1*
X11258Y12868D1*
X11277Y12887D1*
X11286Y12906D1*
X11296Y12934D1*
Y12982D1*
X11286Y13011D1*
X11277Y13030D1*
X11258Y13049D1*
X11239Y13059D1*
X11200D1*
X11472D2*
X11377D1*
X11367Y12973D1*
X11377Y12982D1*
X11406Y12992D1*
X11434D1*
X11463Y12982D1*
X11482Y12963D1*
X11492Y12934D1*
Y12915D1*
X11482Y12887D1*
X11463Y12867D1*
X11434Y12858D1*
X11406D1*
X11377Y12867D1*
X11367Y12877D1*
X11358Y12896D1*
X12081Y13059D2*
Y12858D1*
X12200Y13059D2*
X12181Y13049D1*
X12162Y13030D1*
X12152Y13011D1*
X12143Y12982D1*
Y12934D1*
X12152Y12906D1*
X12162Y12887D1*
X12181Y12868D1*
X12200Y12858D1*
X12239D1*
X12258Y12868D1*
X12277Y12887D1*
X12286Y12906D1*
X12296Y12934D1*
Y12982D1*
X12286Y13011D1*
X12277Y13030D1*
X12258Y13049D1*
X12239Y13059D1*
X12200D1*
X12453Y12858D2*
Y13059D1*
X12358Y12925D1*
X12501D1*
X13081Y13059D2*
Y12858D1*
X13200Y13059D2*
X13181Y13049D1*
X13162Y13030D1*
X13152Y13011D1*
X13143Y12982D1*
Y12934D1*
X13152Y12906D1*
X13162Y12887D1*
X13181Y12868D1*
X13200Y12858D1*
X13239D1*
X13258Y12868D1*
X13277Y12887D1*
X13286Y12906D1*
X13296Y12934D1*
Y12982D1*
X13286Y13011D1*
X13277Y13030D1*
X13258Y13049D1*
X13239Y13059D1*
X13200D1*
X13377D2*
X13482D1*
X13425Y12982D1*
X13453D1*
X13472Y12973D1*
X13482Y12963D1*
X13492Y12934D1*
Y12915D1*
X13482Y12887D1*
X13463Y12867D1*
X13434Y12858D1*
X13405D1*
X13377Y12867D1*
X13367Y12877D1*
X13358Y12896D1*
X14081Y13059D2*
Y12858D1*
X14200Y13059D2*
X14181Y13049D1*
X14162Y13030D1*
X14152Y13011D1*
X14143Y12982D1*
Y12934D1*
X14152Y12906D1*
X14162Y12887D1*
X14181Y12868D1*
X14200Y12858D1*
X14239D1*
X14258Y12868D1*
X14277Y12887D1*
X14286Y12906D1*
X14296Y12934D1*
Y12982D1*
X14286Y13011D1*
X14277Y13030D1*
X14258Y13049D1*
X14239Y13059D1*
X14200D1*
X14367Y13011D2*
Y13020D1*
X14377Y13040D1*
X14386Y13049D1*
X14406Y13059D1*
X14444D1*
X14463Y13049D1*
X14472Y13040D1*
X14482Y13020D1*
Y13001D1*
X14472Y12982D1*
X14453Y12954D1*
X14358Y12858D1*
X14492D1*
X20901Y5381D2*
D73*
X21030D1*
X21073Y5396D1*
X21088Y5410D1*
X21102Y5439D1*
Y5468D1*
X21088Y5496D1*
X21073Y5511D1*
X21030Y5525D1*
X20901D1*
Y5224D1*
X21002Y5381D2*
X21102Y5224D1*
X21381Y5525D2*
X21195D1*
Y5224D1*
X21381D1*
X21195Y5381D2*
X21310D1*
X21474Y5525D2*
X21589Y5224D1*
X21703Y5525D1*
X22317Y5224D2*
X22202Y5525D1*
X22088Y5224D1*
X22131Y5324D2*
X22274D1*
X8042Y4863D2*
D12*
X7965Y5064D1*
X7889Y4863D1*
X7917Y4930D2*
X8013D1*
X8104Y5064D2*
Y4920D1*
X8113Y4892D1*
X8132Y4873D1*
X8161Y4863D1*
X8180D1*
X8209Y4873D1*
X8228Y4892D1*
X8238Y4920D1*
Y5064D1*
X8299D2*
X8433Y4863D1*
Y5064D2*
X8299Y4863D1*
X10993Y11654D2*
D74*
Y11482D1*
X11012Y11425D1*
X11031Y11405D1*
X11069Y11386D1*
X11108D1*
X11146Y11405D1*
X11165Y11425D1*
X11184Y11482D1*
Y11654D1*
X10782D1*
X10993Y11520D2*
X10782Y11386D1*
X11184Y11014D2*
Y11263D1*
X10782D1*
Y11014D1*
X10993Y11263D2*
Y11110D1*
X11089Y6367D2*
X11127Y6386D1*
X11165Y6425D1*
X11184Y6463D1*
Y6539D1*
X11165Y6578D1*
X11127Y6616D1*
X11089Y6635D1*
X11031Y6654D1*
X10935D1*
X10878Y6635D1*
X10840Y6616D1*
X10802Y6578D1*
X10782Y6539D1*
Y6463D1*
X10802Y6425D1*
X10840Y6386D1*
X10878Y6367D1*
X11184Y5995D2*
Y6244D1*
X10782D1*
Y5995D1*
X10993Y6244D2*
Y6091D1*
X11434Y9154D2*
X11032Y9058D1*
X11434Y8962D1*
X11032Y8867D1*
X11434Y8771D1*
Y8399D2*
Y8647D1*
X11032D1*
Y8399D1*
X11243Y8647D2*
Y8494D1*
X7470Y9035D2*
X7872Y9189D1*
X7470Y9341D1*
X7604Y9284D2*
Y9093D1*
X7872Y8912D2*
X7585D1*
X7528Y8893D1*
X7490Y8854D1*
X7470Y8797D1*
Y8759D1*
X7490Y8701D1*
X7528Y8663D1*
X7585Y8644D1*
X7872D1*
Y8520D2*
X7470Y8252D1*
X7872D2*
X7470Y8520D1*
M02*
